<svg width="56" height="56" viewBox="0 0 56 56" fill="none" xmlns="http://www.w3.org/2000/svg">
<g clip-path="url(#clip0_50_186)">
<path d="M45.5 44.625H44.625V39.375C44.6238 38.2904 44.2866 37.2327 43.6599 36.3475C43.0331 35.4622 42.1476 34.7928 41.125 34.4312V33.25H42C42.6962 33.25 43.3639 32.9734 43.8562 32.4812C44.3484 31.9889 44.625 31.3212 44.625 30.625V28.875C44.625 28.1788 44.3484 27.5111 43.8562 27.0188C43.3639 26.5266 42.6962 26.25 42 26.25H41.125V23.625C41.125 22.2326 40.5719 20.8973 39.5873 19.9127C38.6027 18.9281 37.2674 18.375 35.875 18.375H11.375C9.98261 18.375 8.64726 18.9281 7.66269 19.9127C6.67812 20.8973 6.125 22.2326 6.125 23.625V26.25H5.25C4.55381 26.25 3.88613 26.5266 3.39384 27.0188C2.90156 27.5111 2.625 28.1788 2.625 28.875V30.625C2.625 31.3212 2.90156 31.9889 3.39384 32.4812C3.88613 32.9734 4.55381 33.25 5.25 33.25H6.125V34.4312C5.10238 34.7928 4.21685 35.4622 3.59012 36.3475C2.9634 37.2327 2.62624 38.2904 2.625 39.375V44.625H1.75C1.51794 44.625 1.29538 44.7172 1.13128 44.8813C0.967187 45.0454 0.875 45.2679 0.875 45.5V49C0.875 49.2321 0.967187 49.4546 1.13128 49.6187C1.29538 49.7828 1.51794 49.875 1.75 49.875H4.375V52.5C4.375 53.1962 4.65156 53.8639 5.14384 54.3562C5.63613 54.8484 6.30381 55.125 7 55.125H10.5C11.1962 55.125 11.8639 54.8484 12.3562 54.3562C12.8484 53.8639 13.125 53.1962 13.125 52.5V49.875H34.125V52.5C34.125 53.1962 34.4016 53.8639 34.8938 54.3562C35.3861 54.8484 36.0538 55.125 36.75 55.125H40.25C40.9462 55.125 41.6139 54.8484 42.1062 54.3562C42.5984 53.8639 42.875 53.1962 42.875 52.5V49.875H45.5C45.7321 49.875 45.9546 49.7828 46.1187 49.6187C46.2828 49.4546 46.375 49.2321 46.375 49V45.5C46.375 45.2679 46.2828 45.0454 46.1187 44.8813C45.9546 44.7172 45.7321 44.625 45.5 44.625ZM42 28C42.2321 28 42.4546 28.0922 42.6187 28.2563C42.7828 28.4204 42.875 28.6429 42.875 28.875V30.625C42.875 30.8571 42.7828 31.0796 42.6187 31.2437C42.4546 31.4078 42.2321 31.5 42 31.5H41.125V28H42ZM5.25 31.5C5.01794 31.5 4.79538 31.4078 4.63128 31.2437C4.46719 31.0796 4.375 30.8571 4.375 30.625V28.875C4.375 28.6429 4.46719 28.4204 4.63128 28.2563C4.79538 28.0922 5.01794 28 5.25 28H6.125V31.5H5.25ZM7.875 23.625C7.875 22.6967 8.24375 21.8065 8.90013 21.1501C9.5565 20.4937 10.4467 20.125 11.375 20.125H35.875C36.8033 20.125 37.6935 20.4937 38.3499 21.1501C39.0062 21.8065 39.375 22.6967 39.375 23.625V34.125H7.875V23.625ZM4.375 39.375C4.375 38.4467 4.74375 37.5565 5.40013 36.9001C6.0565 36.2437 6.94674 35.875 7.875 35.875H39.375C40.3033 35.875 41.1935 36.2437 41.8499 36.9001C42.5062 37.5565 42.875 38.4467 42.875 39.375V44.625H34.125V38.5C34.125 38.2679 34.0328 38.0454 33.8687 37.8813C33.7046 37.7172 33.4821 37.625 33.25 37.625H14C13.7679 37.625 13.5454 37.7172 13.3813 37.8813C13.2172 38.0454 13.125 38.2679 13.125 38.5V44.625H4.375V39.375ZM28.875 46.375V48.125H18.375V46.375H28.875ZM14.875 44.625V42.875H32.375V44.625H14.875ZM32.375 41.125H14.875V39.375H32.375V41.125ZM2.625 46.375H16.625V48.125H2.625V46.375ZM11.375 52.5C11.375 52.7321 11.2828 52.9546 11.1187 53.1187C10.9546 53.2828 10.7321 53.375 10.5 53.375H7C6.76794 53.375 6.54538 53.2828 6.38128 53.1187C6.21719 52.9546 6.125 52.7321 6.125 52.5V49.875H11.375V52.5ZM41.125 52.5C41.125 52.7321 41.0328 52.9546 40.8687 53.1187C40.7046 53.2828 40.4821 53.375 40.25 53.375H36.75C36.5179 53.375 36.2954 53.2828 36.1313 53.1187C35.9672 52.9546 35.875 52.7321 35.875 52.5V49.875H41.125V52.5ZM44.625 48.125H30.625V46.375H44.625V48.125Z" fill="#FEA116"/>
<path d="M35 21.875H12.25C11.5538 21.875 10.8861 22.1516 10.3938 22.6438C9.90156 23.1361 9.625 23.8038 9.625 24.5V31.5C9.625 31.7321 9.71719 31.9546 9.88128 32.1187C10.0454 32.2828 10.2679 32.375 10.5 32.375H36.75C36.9821 32.375 37.2046 32.2828 37.3687 32.1187C37.5328 31.9546 37.625 31.7321 37.625 31.5V24.5C37.625 23.8038 37.3484 23.1361 36.8562 22.6438C36.3639 22.1516 35.6962 21.875 35 21.875ZM11.375 24.5C11.375 24.2679 11.4672 24.0454 11.6313 23.8813C11.7954 23.7172 12.0179 23.625 12.25 23.625H22.75V30.625H11.375V24.5ZM35.875 30.625H24.5V23.625H35C35.2321 23.625 35.4546 23.7172 35.6187 23.8813C35.7828 24.0454 35.875 24.2679 35.875 24.5V30.625ZM38.5 42.875C39.0192 42.875 39.5267 42.7211 39.9584 42.4326C40.39 42.1442 40.7265 41.7342 40.9252 41.2545C41.1239 40.7749 41.1758 40.2471 41.0746 39.7379C40.9733 39.2287 40.7233 38.761 40.3562 38.3938C39.989 38.0267 39.5213 37.7767 39.0121 37.6754C38.5029 37.5742 37.9751 37.6261 37.4955 37.8248C37.0158 38.0235 36.6058 38.36 36.3174 38.7916C36.029 39.2233 35.875 39.7308 35.875 40.25C35.875 40.9462 36.1516 41.6139 36.6438 42.1062C37.1361 42.5984 37.8038 42.875 38.5 42.875ZM38.5 39.375C38.6731 39.375 38.8422 39.4263 38.9861 39.5225C39.13 39.6186 39.2422 39.7553 39.3084 39.9152C39.3746 40.075 39.3919 40.251 39.3582 40.4207C39.3244 40.5904 39.2411 40.7464 39.1187 40.8687C38.9963 40.9911 38.8404 41.0744 38.6707 41.1082C38.501 41.142 38.325 41.1246 38.1652 41.0584C38.0053 40.9922 37.8686 40.88 37.7725 40.7361C37.6763 40.5922 37.625 40.4231 37.625 40.25C37.625 40.0179 37.7172 39.7954 37.8813 39.6313C38.0454 39.4672 38.2679 39.375 38.5 39.375ZM8.75 37.625C8.23082 37.625 7.72331 37.779 7.29163 38.0674C6.85995 38.3558 6.5235 38.7658 6.32482 39.2455C6.12614 39.7251 6.07415 40.2529 6.17544 40.7621C6.27673 41.2713 6.52673 41.739 6.89385 42.1062C7.26096 42.4733 7.72869 42.7233 8.23789 42.8246C8.74709 42.9258 9.27489 42.8739 9.75454 42.6752C10.2342 42.4765 10.6442 42.1401 10.9326 41.7084C11.221 41.2767 11.375 40.7692 11.375 40.25C11.375 39.5538 11.0984 38.8861 10.6062 38.3938C10.1139 37.9016 9.44619 37.625 8.75 37.625ZM8.75 41.125C8.57694 41.125 8.40777 41.0737 8.26388 40.9775C8.11998 40.8814 8.00783 40.7447 7.94161 40.5849C7.87538 40.425 7.85805 40.249 7.89181 40.0793C7.92558 39.9096 8.00891 39.7537 8.13128 39.6313C8.25365 39.5089 8.40956 39.4256 8.5793 39.3918C8.74903 39.3581 8.92496 39.3754 9.08485 39.4416C9.24473 39.5078 9.38139 39.62 9.47754 39.7639C9.57368 39.9078 9.625 40.0769 9.625 40.25C9.625 40.4821 9.53281 40.7046 9.36872 40.8687C9.20462 41.0328 8.98207 41.125 8.75 41.125ZM53.375 1.75V5.25H49.5688C48.6057 3.58189 47.1191 2.27817 45.3395 1.54106C43.56 0.803942 41.5869 0.674621 39.7264 1.17315C37.8658 1.67168 36.2218 2.7702 35.0492 4.29834C33.8766 5.82648 33.241 7.69883 33.241 9.625C33.241 11.5512 33.8766 13.4235 35.0492 14.9517C36.2218 16.4798 37.8658 17.5783 39.7264 18.0769C41.5869 18.5754 43.56 18.4461 45.3395 17.709C47.1191 16.9718 48.6057 15.6681 49.5688 14H53.375V17.5H55.125V1.75H53.375ZM42 16.625C40.6155 16.625 39.2622 16.2145 38.111 15.4453C36.9599 14.6761 36.0627 13.5829 35.5328 12.3038C35.003 11.0247 34.8644 9.61724 35.1345 8.25937C35.4046 6.9015 36.0713 5.65422 37.0503 4.67526C38.0292 3.69629 39.2765 3.0296 40.6344 2.75951C41.9922 2.48941 43.3997 2.62803 44.6788 3.15785C45.9579 3.68766 47.0511 4.58487 47.8203 5.73601C48.5895 6.88716 49 8.24053 49 9.625C49 11.4815 48.2625 13.262 46.9497 14.5748C45.637 15.8875 43.8565 16.625 42 16.625ZM50.3475 12.25C50.8849 10.5413 50.8849 8.70875 50.3475 7H53.375V12.25H50.3475Z" fill="#FEA116"/>
<path d="M42.875 5.25H41.125C40.8929 5.25 40.6704 5.34219 40.5063 5.50628C40.3422 5.67038 40.25 5.89294 40.25 6.125V14H42V10.5H42.875C43.5712 10.5 44.2389 10.2234 44.7312 9.73116C45.2234 9.23887 45.5 8.57119 45.5 7.875C45.5 7.17881 45.2234 6.51113 44.7312 6.01884C44.2389 5.52656 43.5712 5.25 42.875 5.25ZM42.875 8.75H42V7H42.875C43.1071 7 43.3296 7.09219 43.4937 7.25628C43.6578 7.42038 43.75 7.64294 43.75 7.875C43.75 8.10706 43.6578 8.32962 43.4937 8.49372C43.3296 8.65781 43.1071 8.75 42.875 8.75Z" fill="#FEA116"/>
<path d="M16.0085 24.7549L12.5066 28.2568L13.744 29.4943L17.246 25.9923L16.0085 24.7549Z" fill="#FEA116"/>
<path d="M20.3793 24.7588L16.8773 28.2607L18.1148 29.4982L21.6167 25.9962L20.3793 24.7588Z" fill="#FEA116"/>
<path d="M29.1302 24.7576L25.6283 28.2595L26.8657 29.497L30.3677 25.995L29.1302 24.7576Z" fill="#FEA116"/>
<path d="M33.5099 24.7527L30.0079 28.2546L31.2454 29.4921L34.7473 25.9901L33.5099 24.7527Z" fill="#FEA116"/>
</g>
<defs>
<clipPath id="clip0_50_186">
<rect width="56" height="56" fill="white"/>
</clipPath>
</defs>
</svg>
