<svg width="56" height="56" viewBox="0 0 56 56" fill="none" xmlns="http://www.w3.org/2000/svg">
<g clip-path="url(#clip0_49_170)">
<path d="M53.6133 49.4347C53.4858 48.9685 53.0048 48.694 52.5385 48.8215L49.2849 49.7114L45.5952 36.2204C50.0396 34.4808 52.5662 29.5837 51.2845 24.8974L46.4629 7.26797C46.4598 7.2532 46.456 7.23844 46.4521 7.22389C46.3382 6.8075 45.9403 6.54434 45.5273 6.58339C45.477 6.58798 45.4265 6.59706 45.3761 6.61084C45.3698 6.61259 45.3638 6.61423 45.3577 6.61609L29.041 11.0786C29.0362 11.0798 29.0314 11.081 29.0266 11.0823C28.9951 11.091 28.9646 11.1012 28.9348 11.1128C28.5246 11.2744 28.2933 11.7225 28.4123 12.1576C28.4164 12.1722 28.4207 12.1867 28.4254 12.2009L33.247 29.8306C34.3924 34.0184 38.2408 36.8039 42.4085 36.8037C42.9049 36.8037 43.4058 36.7636 43.9072 36.6822L47.5968 50.1728L43.8782 51.1899C43.412 51.3174 43.1376 51.7986 43.265 52.2647C43.3715 52.6537 43.7239 52.9092 44.1085 52.9092C44.1849 52.9092 44.2626 52.8991 44.3399 52.878L53.0002 50.5095C53.4662 50.382 53.7407 49.9007 53.6133 49.4347ZM44.9938 8.52983L47.0712 16.1255C44.1339 16.566 41.855 18.1331 39.6443 19.6537C37.5272 21.1099 35.518 22.4908 33.1105 22.6982L30.3322 12.5396L44.9938 8.52983ZM34.935 29.369L33.5786 24.4092C36.2962 24.0795 38.4987 22.5658 40.6361 21.0957C42.8247 19.5903 44.901 18.163 47.5369 17.8281L49.5965 25.3593C50.703 29.4045 48.329 33.643 44.3037 34.8142C40.2419 35.8549 36.0414 33.4145 34.935 29.369ZM27.1345 14.2348C27.0839 14.2096 27.0301 14.1888 26.9734 14.1733C26.9668 14.1715 26.9604 14.1699 26.9538 14.1681L10.6422 9.70703C10.6362 9.70517 10.6302 9.70353 10.6239 9.70178C10.5736 9.688 10.5231 9.67892 10.4729 9.67433C10.058 9.63462 9.66175 9.89866 9.54789 10.3148C9.54395 10.3295 9.54034 10.3442 9.53706 10.3589L4.71537 27.9885C3.43372 32.6748 5.9605 37.572 10.4048 39.3116L6.71519 52.8023L3.46161 51.9124C2.996 51.7846 2.51431 52.0594 2.38678 52.5256C2.25936 52.9918 2.53389 53.4729 2.99994 53.6004L11.6602 55.9689C11.7375 55.99 11.8151 56.0001 11.8916 56.0001C12.2761 56.0001 12.6287 55.7446 12.7351 55.3557C12.8625 54.8895 12.588 54.4084 12.1219 54.2808L8.40328 53.2638L12.0929 39.7731C12.5943 39.8545 13.095 39.8945 13.5916 39.8945C17.7589 39.8943 21.6078 37.1089 22.7532 32.9214L27.5746 15.2922C27.5795 15.2778 27.5838 15.2632 27.5879 15.2485C27.6998 14.8389 27.501 14.4173 27.1345 14.2348ZM11.6963 37.9051C7.67112 36.7339 5.29703 32.4954 6.40336 28.4502L8.46311 20.9191C11.0989 21.2541 13.1752 22.6812 15.3638 24.1866C17.5013 25.657 19.7037 27.1705 22.4213 27.5003L21.0649 32.4601C19.9585 36.5054 15.7582 38.9458 11.6963 37.9051ZM22.8895 25.7892C20.4821 25.5818 18.4727 24.201 16.3557 22.7447C14.145 21.2241 11.8661 19.6572 8.92883 19.2165L11.0062 11.6209L25.6678 15.6308L22.8895 25.7892ZM25.2423 5.53875V0.875C25.2423 0.391781 25.6341 0 26.1173 0C26.6005 0 26.9923 0.391781 26.9923 0.875V5.53875C26.9923 6.02197 26.6005 6.41375 26.1173 6.41375C25.6341 6.41375 25.2423 6.02197 25.2423 5.53875ZM19.4756 2.88903C19.234 2.47056 19.3775 1.93539 19.796 1.69367C20.2147 1.45217 20.7498 1.59567 20.9914 2.01403L23.323 6.05303C23.5647 6.4715 23.4212 7.00667 23.0028 7.24839C22.865 7.32791 22.7145 7.36564 22.5661 7.36564C22.2636 7.36564 21.9696 7.20869 21.8074 6.92803L19.4756 2.88903ZM28.9116 6.05303L31.2435 2.01403C31.4851 1.59556 32.0202 1.45195 32.4388 1.69378C32.8572 1.93539 33.0007 2.47056 32.759 2.88903L30.4271 6.92803C30.2652 7.20869 29.9709 7.36564 29.6685 7.36564C29.5201 7.36564 29.3697 7.3278 29.2319 7.24828C28.8134 7.00667 28.6699 6.4715 28.9116 6.05303Z" fill="#FEA116"/>
</g>
<defs>
<clipPath id="clip0_49_170">
<rect width="56" height="56" fill="white"/>
</clipPath>
</defs>
</svg>
