<svg width="56" height="56" viewBox="0 0 56 56" fill="none" xmlns="http://www.w3.org/2000/svg">
<g clip-path="url(#clip0_50_203)">
<path d="M28.875 14C28.875 13.7679 28.7828 13.5454 28.6187 13.3813C28.4546 13.2172 28.2321 13.125 28 13.125H23.625V9.625C23.625 9.39294 23.5328 9.17038 23.3687 9.00628C23.2046 8.84219 22.9821 8.75 22.75 8.75H21.875V5.25C21.875 5.01794 21.7828 4.79538 21.6187 4.63128C21.4546 4.46719 21.2321 4.375 21 4.375H17.5C17.2679 4.375 17.0454 4.46719 16.8813 4.63128C16.7172 4.79538 16.625 5.01794 16.625 5.25V8.75H14.875C14.6733 8.74996 14.4778 8.81961 14.3215 8.94717C14.1652 9.07473 14.0578 9.25236 14.0175 9.45L13.2825 13.125L6.99475 13.1609C6.83225 13.1609 6.67296 13.2061 6.53474 13.2916C6.39651 13.377 6.2848 13.4992 6.21213 13.6446C6.13945 13.7899 6.10869 13.9526 6.12329 14.1145C6.13788 14.2763 6.19725 14.4309 6.29475 14.5609L10.1999 19.8109C10.2814 19.9195 10.3871 20.0077 10.5086 20.0685C10.6301 20.1292 10.764 20.1609 10.8999 20.1609L22.75 20.125C24.3739 20.1231 25.9307 19.4772 27.079 18.329C28.2272 17.1807 28.8731 15.6239 28.875 14ZM18.375 6.125H20.125V8.75H18.375V6.125ZM21.875 10.5V13.125H15.0675L15.5925 10.5H21.875ZM11.3435 18.4135L8.73338 14.9056L14.0053 14.875H27.0375C26.8343 15.8624 26.2969 16.7497 25.5159 17.3872C24.735 18.0247 23.7581 18.3736 22.75 18.375L11.3435 18.4135ZM1.75 40.25H4.375V42.875C4.375 43.1071 4.46719 43.3296 4.63128 43.4937C4.79538 43.6578 5.01794 43.75 5.25 43.75H7.875V44.625C7.875 44.8571 7.96719 45.0796 8.13128 45.2437C8.29538 45.4078 8.51794 45.5 8.75 45.5H13.125C13.3571 45.5 13.5796 45.4078 13.7437 45.2437C13.9078 45.0796 14 44.8571 14 44.625V40.25H21V44.625C21 44.8571 21.0922 45.0796 21.2563 45.2437C21.4204 45.4078 21.6429 45.5 21.875 45.5H26.25C26.4821 45.5 26.7046 45.4078 26.8687 45.2437C27.0328 45.0796 27.125 44.8571 27.125 44.625V43.75H29.75C29.9821 43.75 30.2046 43.6578 30.3687 43.4937C30.5328 43.3296 30.625 43.1071 30.625 42.875V40.25H33.25C33.4821 40.25 33.7046 40.1578 33.8687 39.9937C34.0328 39.8296 34.125 39.6071 34.125 39.375V35.875C34.125 35.6429 34.0328 35.4204 33.8687 35.2563C33.7046 35.0922 33.4821 35 33.25 35H30.625V32.375C30.625 32.1429 30.5328 31.9204 30.3687 31.7563C30.2046 31.5922 29.9821 31.5 29.75 31.5H27.125V30.625C27.125 30.3929 27.0328 30.1704 26.8687 30.0063C26.7046 29.8422 26.4821 29.75 26.25 29.75H21.875C21.6429 29.75 21.4204 29.8422 21.2563 30.0063C21.0922 30.1704 21 30.3929 21 30.625V35H14V30.625C14 30.3929 13.9078 30.1704 13.7437 30.0063C13.5796 29.8422 13.3571 29.75 13.125 29.75H8.75C8.51794 29.75 8.29538 29.8422 8.13128 30.0063C7.96719 30.1704 7.875 30.3929 7.875 30.625V31.5H5.25C5.01794 31.5 4.79538 31.5922 4.63128 31.7563C4.46719 31.9204 4.375 32.1429 4.375 32.375V35H1.75C1.51794 35 1.29538 35.0922 1.13128 35.2563C0.967187 35.4204 0.875 35.6429 0.875 35.875V39.375C0.875 39.6071 0.967187 39.8296 1.13128 39.9937C1.29538 40.1578 1.51794 40.25 1.75 40.25ZM32.375 36.75V38.5H30.625V36.75H32.375ZM28.875 33.25V42H27.125V33.25H28.875ZM22.75 31.5H25.375V43.75H22.75V31.5ZM21 36.75V38.5H14V36.75H21ZM9.625 31.5H12.25V43.75H9.625V31.5ZM6.125 33.25H7.875V42H6.125V33.25ZM2.625 36.75H4.375V38.5H2.625V36.75Z" fill="#FEA116"/>
<path d="M52.5 49.875H38.2988L44.0011 26.25H47.25C47.4274 26.2501 47.6007 26.1963 47.7468 26.0956C47.8929 25.995 48.005 25.8523 48.0681 25.6865L55.0681 7.31151C55.1186 7.17899 55.1361 7.03619 55.1192 6.8954C55.1022 6.75461 55.0513 6.62005 54.9708 6.5033C54.8903 6.38656 54.7826 6.29113 54.6571 6.22523C54.5315 6.15933 54.3918 6.12494 54.25 6.12501H50.75C50.5766 6.12494 50.4071 6.17638 50.263 6.27281C50.1189 6.36925 50.0067 6.50632 49.9406 6.66663L44.0387 21H31.7013C33.0769 19.1085 33.9022 16.8733 34.0858 14.5417C34.2695 12.2101 33.8042 9.87314 32.7417 7.78964C31.6791 5.70615 30.0606 3.95737 28.0655 2.73696C26.0703 1.51654 23.7763 0.872109 21.4375 0.87501H13.5625C10.1976 0.87501 6.97045 2.21172 4.59108 4.59109C2.21171 6.97046 0.875 10.1976 0.875 13.5625C0.875 16.9274 2.21171 20.1546 4.59108 22.5339C6.97045 24.9133 10.1976 26.25 13.5625 26.25H21.4375C22.1446 26.2467 22.8503 26.1846 23.5471 26.0645C23.8503 26.1856 24.1735 26.2486 24.5 26.25H38.7012L32.9989 49.875H3.5C2.80381 49.875 2.13613 50.1516 1.64384 50.6439C1.15156 51.1361 0.875 51.8038 0.875 52.5C0.875 53.1962 1.15156 53.8639 1.64384 54.3562C2.13613 54.8484 2.80381 55.125 3.5 55.125H52.5C53.1962 55.125 53.8639 54.8484 54.3562 54.3562C54.8484 53.8639 55.125 53.1962 55.125 52.5C55.125 51.8038 54.8484 51.1361 54.3562 50.6439C53.8639 50.1516 53.1962 49.875 52.5 49.875ZM13.5625 24.5C10.6617 24.5 7.8797 23.3477 5.82852 21.2965C3.77734 19.2453 2.625 16.4633 2.625 13.5625C2.625 10.6617 3.77734 7.87971 5.82852 5.82853C7.8797 3.77735 10.6617 2.62501 13.5625 2.62501H21.4375C23.5667 2.62268 25.6502 3.24251 27.4319 4.40833C29.2136 5.57415 30.6158 7.23514 31.4663 9.18715C32.3167 11.1392 32.5782 13.2971 32.2188 15.3958C31.8593 17.4944 30.8945 19.4423 29.4429 21H24.5C23.8038 21 23.1361 21.2766 22.6438 21.7689C22.1516 22.2611 21.875 22.9288 21.875 23.625C21.8785 23.9136 21.9303 24.1996 22.0281 24.4711C21.8312 24.4816 21.6353 24.4991 21.4384 24.4991L13.5625 24.5ZM23.625 23.625C23.625 23.3929 23.7172 23.1704 23.8813 23.0063C24.0454 22.8422 24.2679 22.75 24.5 22.75H44.625C44.7984 22.7501 44.9679 22.6986 45.112 22.6022C45.2561 22.5058 45.3683 22.3687 45.4344 22.2084L51.3363 7.87501H52.9804L46.6471 24.5H24.5C24.2679 24.5 24.0454 24.4078 23.8813 24.2437C23.7172 24.0796 23.625 23.8571 23.625 23.625ZM40.502 26.25H42.2012L36.4989 49.875H34.7988L40.502 26.25ZM52.5 53.375H3.5C3.26794 53.375 3.04538 53.2828 2.88128 53.1187C2.71719 52.9546 2.625 52.7321 2.625 52.5C2.625 52.2679 2.71719 52.0454 2.88128 51.8813C3.04538 51.7172 3.26794 51.625 3.5 51.625H52.5C52.7321 51.625 52.9546 51.7172 53.1187 51.8813C53.2828 52.0454 53.375 52.2679 53.375 52.5C53.375 52.7321 53.2828 52.9546 53.1187 53.1187C52.9546 53.2828 52.7321 53.375 52.5 53.375Z" fill="#FEA116"/>
</g>
<defs>
<clipPath id="clip0_50_203">
<rect width="56" height="56" fill="white"/>
</clipPath>
</defs>
</svg>
