<svg width="35" height="35" viewBox="0 0 35 35" fill="none" xmlns="http://www.w3.org/2000/svg">
<g clip-path="url(#clip0_124_147)">
<path d="M15.9619 15.3125H11.3818C11.2459 15.3125 11.1155 15.3665 11.0193 15.4627C10.9232 15.5588 10.8691 15.6892 10.8691 15.8252V20.4053C10.8691 20.5412 10.9232 20.6717 11.0193 20.7678C11.1155 20.864 11.2459 20.918 11.3818 20.918H15.9619C16.0979 20.918 16.2283 20.864 16.3244 20.7678C16.4206 20.6717 16.4746 20.5412 16.4746 20.4053V15.8252C16.4746 15.6892 16.4206 15.5588 16.3244 15.4627C16.2283 15.3665 16.0979 15.3125 15.9619 15.3125ZM15.4492 19.8926H11.8945V16.3379H15.4492V19.8926ZM32.4365 11.0059H27.207V8.71582C27.2063 8.03618 26.9359 7.38459 26.4554 6.90401C25.9748 6.42343 25.3232 6.1531 24.6436 6.15234H24.1309V2.56348C24.1301 1.88383 23.8598 1.23224 23.3792 0.751664C22.8986 0.271084 22.247 0.000759924 21.5674 0L13.4326 0C12.753 0.000759924 12.1014 0.271084 11.6208 0.751664C11.1402 1.23224 10.8699 1.88383 10.8691 2.56348V6.15234H10.3564C9.6768 6.1531 9.02521 6.42343 8.54463 6.90401C8.06405 7.38459 7.79373 8.03618 7.79297 8.71582V11.0059H2.56348C1.88383 11.0066 1.23224 11.2769 0.751664 11.7575C0.271084 12.2381 0.000759924 12.8897 0 13.5693L0 34.4873C0 34.6233 0.054016 34.7537 0.150165 34.8498C0.246314 34.946 0.37672 35 0.512695 35H34.4873C34.6233 35 34.7537 34.946 34.8498 34.8498C34.946 34.7537 35 34.6233 35 34.4873V13.5693C34.9992 12.8897 34.7289 12.2381 34.2483 11.7575C33.7678 11.2769 33.1162 11.0066 32.4365 11.0059ZM7.79297 28.0957H4.23828V24.541H7.79297V28.0957ZM7.79297 19.8926H4.23828V16.3379H7.79297V19.8926ZM7.79297 15.3125H3.72559C3.58961 15.3125 3.4592 15.3665 3.36306 15.4627C3.26691 15.5588 3.21289 15.6892 3.21289 15.8252V20.4053C3.21289 20.5412 3.26691 20.6717 3.36306 20.7678C3.4592 20.864 3.58961 20.918 3.72559 20.918H7.79297V23.5156H3.72559C3.58961 23.5156 3.4592 23.5696 3.36306 23.6658C3.26691 23.7619 3.21289 23.8923 3.21289 24.0283V28.6084C3.21289 28.7444 3.26691 28.8748 3.36306 28.9709C3.4592 29.0671 3.58961 29.1211 3.72559 29.1211H7.79297V33.9746H1.02539V13.5693C1.02584 13.1615 1.18804 12.7706 1.47639 12.4822C1.76473 12.1939 2.15569 12.0317 2.56348 12.0312H7.79297V15.3125ZM11.8945 2.56348C11.895 2.15569 12.0572 1.76473 12.3455 1.47639C12.6339 1.18804 13.0248 1.02584 13.4326 1.02539H21.5674C21.9752 1.02586 22.3661 1.18806 22.6545 1.47641C22.9428 1.76475 23.105 2.1557 23.1055 2.56348V10.6982C23.105 11.106 22.9428 11.497 22.6545 11.7853C22.3661 12.0737 21.9752 12.2359 21.5674 12.2363H13.4326C13.0248 12.2359 12.6339 12.0737 12.3455 11.7853C12.0572 11.497 11.895 11.106 11.8945 10.6982V2.56348ZM20.2002 33.9746H14.7998V25.5322C14.8003 25.1244 14.9625 24.7335 15.2508 24.4451C15.5391 24.1568 15.9301 23.9946 16.3379 23.9941H18.6621C19.0699 23.9946 19.4608 24.1568 19.7492 24.4452C20.0375 24.7335 20.1997 25.1244 20.2002 25.5322V33.9746ZM26.1816 33.9746H21.2256V25.5322C21.2248 24.8526 20.9545 24.201 20.4739 23.7204C19.9933 23.2398 19.3418 22.9695 18.6621 22.9688H16.3379C15.6582 22.9695 15.0067 23.2398 14.5261 23.7204C14.0455 24.201 13.7752 24.8526 13.7744 25.5322V33.9746H8.81836V8.71582C8.81881 8.30803 8.98101 7.91708 9.26935 7.62873C9.5577 7.34038 9.94866 7.17819 10.3564 7.17773H10.8691V10.6982C10.8699 11.3779 11.1402 12.0295 11.6208 12.5101C12.1014 12.9906 12.753 13.261 13.4326 13.2617H21.5674C22.247 13.261 22.8986 12.9906 23.3792 12.5101C23.8598 12.0295 24.1301 11.3779 24.1309 10.6982V7.17773H24.6436C25.0513 7.1782 25.4423 7.3404 25.7306 7.62875C26.019 7.91709 26.1812 8.30804 26.1816 8.71582V33.9746ZM27.207 16.3379H30.7617V19.8926H27.207V16.3379ZM27.207 24.541H30.7617V28.0957H27.207V24.541ZM33.9746 33.9746H27.207V29.1211H31.2744C31.4104 29.1211 31.5408 29.0671 31.6369 28.9709C31.7331 28.8748 31.7871 28.7444 31.7871 28.6084V24.0283C31.7871 23.8923 31.7331 23.7619 31.6369 23.6658C31.5408 23.5696 31.4104 23.5156 31.2744 23.5156H27.207V20.918H31.2744C31.4104 20.918 31.5408 20.864 31.6369 20.7678C31.7331 20.6717 31.7871 20.5412 31.7871 20.4053V15.8252C31.7871 15.6892 31.7331 15.5588 31.6369 15.4627C31.5408 15.3665 31.4104 15.3125 31.2744 15.3125H27.207V12.0312H32.4365C32.8443 12.0317 33.2353 12.1939 33.5236 12.4823C33.8119 12.7706 33.9741 13.1616 33.9746 13.5693V33.9746ZM13.2766 9.72248H21.7234C21.8594 9.72248 21.9898 9.66846 22.0859 9.57232C22.1821 9.47617 22.2361 9.34576 22.2361 9.20979C22.2361 9.07381 22.1821 8.9434 22.0859 8.84725C21.9898 8.75111 21.8594 8.69709 21.7234 8.69709H21.4542C21.3624 8.00446 21.089 7.34845 20.6618 6.79558C20.2345 6.24271 19.6687 5.81265 19.0217 5.549V5.07363C19.0217 4.6667 18.86 4.27644 18.5723 3.9887C18.2845 3.70096 17.8943 3.53931 17.4874 3.53931C17.0804 3.53931 16.6902 3.70096 16.4024 3.9887C16.1147 4.27644 15.953 4.6667 15.953 5.07363V5.54914C15.3061 5.81281 14.7403 6.24288 14.3132 6.79572C13.886 7.34856 13.6127 8.00452 13.5208 8.69709H13.2766C13.1406 8.69709 13.0102 8.75111 12.914 8.84725C12.8179 8.9434 12.7639 9.07381 12.7639 9.20979C12.7639 9.34576 12.8179 9.47617 12.914 9.57232C13.0102 9.66846 13.1406 9.72248 13.2766 9.72248ZM16.9784 5.07363C16.9786 4.93861 17.0323 4.80916 17.1277 4.71368C17.2232 4.6182 17.3527 4.5645 17.4877 4.56436C17.6226 4.56461 17.7519 4.61837 17.8473 4.71384C17.9426 4.80931 17.9962 4.9387 17.9963 5.07363V5.28609C17.844 5.26805 17.6908 5.25885 17.5374 5.25854H17.4377C17.2842 5.25886 17.1309 5.26808 16.9784 5.28616V5.07363ZM17.4377 6.28394H17.5374C18.2242 6.28483 18.8889 6.52694 19.4155 6.96798C19.942 7.40902 20.2969 8.02098 20.4182 8.69702H14.5569C14.6782 8.02097 15.0331 7.40901 15.5596 6.96797C16.0862 6.52693 16.7509 6.28483 17.4377 6.28394ZM23.6182 15.3125H19.0381C18.9021 15.3125 18.7717 15.3665 18.6756 15.4627C18.5794 15.5588 18.5254 15.6892 18.5254 15.8252V20.4053C18.5254 20.5412 18.5794 20.6717 18.6756 20.7678C18.7717 20.864 18.9021 20.918 19.0381 20.918H23.6182C23.7541 20.918 23.8845 20.864 23.9807 20.7678C24.0768 20.6717 24.1309 20.5412 24.1309 20.4053V15.8252C24.1309 15.6892 24.0768 15.5588 23.9807 15.4627C23.8845 15.3665 23.7541 15.3125 23.6182 15.3125ZM23.1055 19.8926H19.5508V16.3379H23.1055V19.8926Z" fill="#FEA116"/>
</g>
<defs>
<clipPath id="clip0_124_147">
<rect width="35" height="35" fill="white"/>
</clipPath>
</defs>
</svg>
