<svg width="24" height="25" viewBox="0 0 24 25" fill="none" xmlns="http://www.w3.org/2000/svg">
<path d="M14.6269 14.3187H11.475C9.69797 14.3161 7.99452 13.6089 6.73812 12.3522C5.48172 11.0955 4.77489 9.39189 4.77261 7.61487V4.36812C4.77261 4.21893 4.83188 4.07586 4.93737 3.97037C5.04286 3.86488 5.18593 3.80562 5.33511 3.80562C5.4843 3.80562 5.62737 3.86488 5.73286 3.97037C5.83835 4.07586 5.89761 4.21893 5.89761 4.36812V7.61487C5.8992 9.09373 6.48728 10.5116 7.53285 11.5574C8.57843 12.6033 9.99613 13.1918 11.475 13.1937H14.625C14.7742 13.1937 14.9172 13.253 15.0227 13.3585C15.1282 13.464 15.1875 13.6071 15.1875 13.7562C15.1875 13.9054 15.1282 14.0485 15.0227 14.154C14.9172 14.2595 14.7742 14.3187 14.625 14.3187H14.6269Z" fill="#FEA116"/>
<path d="M11.8406 17.105C11.7295 17.1049 11.6208 17.0719 11.5284 17.01C11.436 16.9482 11.3639 16.8604 11.3214 16.7577C11.2789 16.655 11.2677 16.5419 11.2894 16.4329C11.3111 16.3239 11.3646 16.2237 11.4431 16.145L14.229 13.3588C14.2809 13.305 14.343 13.2622 14.4116 13.2327C14.4802 13.2032 14.554 13.1877 14.6287 13.187C14.7034 13.1864 14.7775 13.2006 14.8466 13.2289C14.9157 13.2572 14.9785 13.299 15.0314 13.3518C15.0842 13.4046 15.1259 13.4674 15.1542 13.5365C15.1825 13.6057 15.1967 13.6797 15.1961 13.7544C15.1954 13.8291 15.1799 13.9029 15.1504 13.9715C15.121 14.0402 15.0781 14.1022 15.0244 14.1541L12.2385 16.9404C12.1862 16.9926 12.1242 17.034 12.0559 17.0623C11.9877 17.0905 11.9145 17.105 11.8406 17.105Z" fill="#FEA116"/>
<path d="M14.6269 14.3188C14.553 14.3188 14.4798 14.3043 14.4116 14.276C14.3433 14.2478 14.2813 14.2064 14.229 14.1541L11.4431 11.3675C11.3894 11.3156 11.3465 11.2535 11.3171 11.1849C11.2876 11.1163 11.2721 11.0425 11.2714 10.9678C11.2708 10.8931 11.285 10.819 11.3133 10.7499C11.3416 10.6808 11.3833 10.618 11.4361 10.5652C11.489 10.5123 11.5518 10.4706 11.6209 10.4423C11.69 10.414 11.7641 10.3998 11.8388 10.4004C11.9135 10.4011 11.9873 10.4166 12.0559 10.4461C12.1245 10.4756 12.1866 10.5184 12.2385 10.5721L15.0244 13.3588C15.1029 13.4374 15.1564 13.5376 15.1781 13.6467C15.1998 13.7557 15.1886 13.8687 15.1461 13.9714C15.1035 14.0742 15.0315 14.162 14.9391 14.2238C14.8467 14.2856 14.738 14.3187 14.6269 14.3188Z" fill="#FEA116"/>
<path d="M18.6649 21.1944H5.33511C5.18593 21.1944 5.04286 21.1351 4.93737 21.0296C4.83188 20.9241 4.77261 20.7811 4.77261 20.6319V15.2562C4.77261 15.1071 4.83188 14.964 4.93737 14.8585C5.04286 14.753 5.18593 14.6937 5.33511 14.6937C5.4843 14.6937 5.62737 14.753 5.73286 14.8585C5.83835 14.964 5.89761 15.1071 5.89761 15.2562V20.0694H18.1024V4.93062H9.05961C8.91043 4.93062 8.76735 4.87136 8.66187 4.76587C8.55638 4.66038 8.49711 4.5173 8.49711 4.36812C8.49711 4.21893 8.55638 4.07586 8.66187 3.97037C8.76735 3.86488 8.91043 3.80562 9.05961 3.80562H18.6649C18.814 3.80562 18.9571 3.86488 19.0626 3.97037C19.1681 4.07586 19.2274 4.21893 19.2274 4.36812V20.6319C19.2274 20.7811 19.1681 20.9241 19.0626 21.0296C18.9571 21.1351 18.814 21.1944 18.6649 21.1944Z" fill="#FEA116"/>
</svg>
