<svg width="24" height="25" viewBox="0 0 24 25" fill="none" xmlns="http://www.w3.org/2000/svg">
<path d="M17.1029 22.8622C16.2512 22.8625 15.4142 22.6403 14.6748 22.2175L14.5705 22.1588C9.76319 19.4088 5.74132 15.4722 2.88911 10.7248L2.34539 9.81862C1.7885 8.89216 1.55774 7.80596 1.68987 6.73312C1.82201 5.66028 2.30944 4.66254 3.07449 3.8989L4.1578 2.81559C5.06815 1.90524 6.5487 1.90524 7.45822 2.81559L9.84498 5.20235C10.2042 5.56324 10.436 6.03137 10.5053 6.53581C10.5746 7.04026 10.4776 7.55355 10.229 7.99793L9.33187 9.59103C9.31302 9.62455 9.30564 9.66332 9.31087 9.70142C9.3161 9.73952 9.33365 9.77487 9.36084 9.80207L14.6748 15.116C14.7024 15.1431 14.7381 15.1605 14.7764 15.1655C14.8148 15.1706 14.8537 15.1631 14.8875 15.1441L16.4781 14.2479L16.4789 14.247C16.9234 13.9987 17.4366 13.9019 17.941 13.9712C18.4453 14.0404 18.9135 14.2721 19.2745 14.631L21.6621 17.0194C22.5724 17.9298 22.5724 19.4103 21.6621 20.3199L20.5308 21.4503C20.0802 21.8994 19.5456 22.2552 18.9574 22.4975C18.3692 22.7398 17.739 22.8637 17.1029 22.8622ZM5.80801 3.788C5.63422 3.788 5.46042 3.85421 5.32801 3.98662L4.2447 5.0691C3.74117 5.57173 3.42035 6.22842 3.33336 6.93454C3.24637 7.64066 3.39822 8.35557 3.7647 8.96538L4.30842 9.87159C7.01392 14.3751 10.8289 18.1097 15.389 20.7188L15.4933 20.7775C16.7561 21.5 18.3451 21.2956 19.3597 20.2793L20.491 19.1488C20.5541 19.0858 20.6041 19.011 20.6383 18.9286C20.6724 18.8463 20.69 18.758 20.69 18.6688C20.69 18.5797 20.6724 18.4914 20.6383 18.409C20.6041 18.3267 20.5541 18.2519 20.491 18.1888L18.1035 15.8004C17.9984 15.696 17.8621 15.6286 17.7153 15.6086C17.5685 15.5886 17.4191 15.617 17.2899 15.6895L15.6993 16.5858C15.3505 16.7811 14.9476 16.8574 14.5516 16.8032C14.1556 16.7489 13.788 16.5672 13.5046 16.2854L8.19063 10.9714C7.90854 10.6883 7.72656 10.3209 7.67234 9.92489C7.61812 9.52891 7.69462 9.12605 7.89022 8.77752L8.78732 7.18524C8.8594 7.056 8.88748 6.90682 8.86732 6.76022C8.84717 6.61362 8.77988 6.47755 8.6756 6.37255L6.28801 3.98662C6.22502 3.92354 6.15019 3.87352 6.06782 3.83944C5.98545 3.80535 5.89716 3.78787 5.80801 3.788Z" fill="#FEA116"/>
</svg>
