<svg width="56" height="56" viewBox="0 0 56 56" fill="none" xmlns="http://www.w3.org/2000/svg">
<g clip-path="url(#clip0_44_2145)">
<path d="M23.3334 42.0001H14C13.356 42.0001 12.8334 41.4774 12.8334 40.8334V22.1667C12.8334 16.3777 17.5444 11.6667 23.3334 11.6667C23.9774 11.6667 24.5 12.1894 24.5 12.8334V40.8334C24.5 41.4774 23.9774 42.0001 23.3334 42.0001ZM15.1667 39.6667H22.1667V14.0829C18.214 14.6511 15.1667 18.0589 15.1667 22.1667V39.6667Z" fill="#FEA116"/>
<path d="M23.3333 56.0001H18.6655C18.3563 56.0001 18.0588 55.8776 17.8406 55.6583C17.6225 55.4389 17.4988 55.1426 17.4988 54.8334L17.5 40.8334C17.5 40.1894 18.0226 39.6668 18.6666 39.6668H23.3333C23.9773 39.6668 24.5 40.1894 24.5 40.8334V54.8334C24.5 55.4774 23.9773 56.0001 23.3333 56.0001ZM19.8321 53.6668H22.1666V42.0001H19.8333L19.8321 53.6668ZM54.8321 15.1668C54.663 15.1668 54.4926 15.1306 54.3293 15.0524L28 2.45943L1.67064 15.0524C1.09081 15.3278 0.391973 15.0839 0.114307 14.5029C-0.16336 13.9208 0.0828066 13.2243 0.663807 12.9466L27.4971 0.113262C27.8156 -0.0384049 28.1855 -0.0384049 28.504 0.113262L55.3373 12.9466C55.9183 13.2243 56.1645 13.9208 55.8868 14.5029C55.685 14.9229 55.2673 15.1668 54.8321 15.1668Z" fill="#FEA116"/>
<path d="M35 31.4989C34.0562 31.4989 33.1357 31.3379 32.2665 31.0206C29.0232 29.8924 26.8334 26.8007 26.8334 23.3322V15.1656C26.8334 14.1354 27.2849 13.1612 28.0724 12.4939C28.8575 11.8289 29.897 11.5466 30.9214 11.7157C32.5804 11.9864 33.8334 13.5252 33.8334 15.2939V19.8322C33.8334 20.1437 33.9524 20.4307 34.1682 20.6407C34.4004 20.8799 34.6885 20.9989 35 20.9989C35.644 20.9989 36.1667 20.4751 36.1667 19.8322V15.2939C36.1667 13.5252 37.4197 11.9876 39.0822 11.7157C40.0995 11.5466 41.1425 11.8289 41.9265 12.4939C42.7152 13.1612 43.1667 14.1342 43.1667 15.1656V23.3322C43.1667 25.5232 42.315 27.5754 40.768 29.1084C39.9199 29.9682 38.8594 30.6367 37.7102 31.0287C36.8644 31.3367 35.9439 31.4989 35 31.4989ZM30.3299 14.0001C30.0522 14.0001 29.792 14.0946 29.5797 14.2731C29.3172 14.4971 29.1667 14.8214 29.1667 15.1656V23.3322C29.1667 25.8091 30.7277 28.0152 33.0494 28.8226C34.3094 29.2822 35.707 29.2764 36.9332 28.8284C37.765 28.5437 38.5117 28.0747 39.1149 27.4611C40.2267 26.3586 40.8334 24.8956 40.8334 23.3322V15.1656C40.8334 14.8226 40.6829 14.4971 40.4204 14.2742C40.1567 14.0502 39.8207 13.9604 39.4625 14.0176C38.92 14.1062 38.5 14.6662 38.5 15.2939V19.8322C38.5 21.7619 36.9297 23.3322 35 23.3322C34.0527 23.3322 33.173 22.9624 32.5185 22.2916C31.8699 21.6604 31.5 20.7796 31.5 19.8322V15.2939C31.5 14.6662 31.08 14.1062 30.5422 14.0187C30.4699 14.0059 30.3999 14.0001 30.3299 14.0001Z" fill="#FEA116"/>
<path d="M37.3333 56H32.6667C32.0215 56 31.5 55.4773 31.5 54.8333V29.9238C31.5 29.5423 31.6855 29.1865 31.9982 28.9683C32.3108 28.7501 32.7098 28.6976 33.0668 28.8283C34.293 29.2763 35.7082 29.2763 36.9332 28.8283C37.2913 28.6976 37.688 28.7513 38.0018 28.9683C38.3145 29.1865 38.5 29.5423 38.5 29.9238V54.8333C38.5 55.4773 37.9785 56 37.3333 56ZM33.8333 53.6666H36.1667V31.4148C35.399 31.5268 34.601 31.5268 33.8333 31.4148V53.6666Z" fill="#FEA116"/>
<path d="M54.8333 56.0001H1.16667C0.522667 56.0001 0 55.4774 0 54.8334C0 54.1894 0.522667 53.6667 1.16667 53.6667H54.8333C55.4785 53.6667 56 54.1894 56 54.8334C56 55.4774 55.4785 56.0001 54.8333 56.0001Z" fill="#FEA116"/>
</g>
<defs>
<clipPath id="clip0_44_2145">
<rect width="56" height="56" fill="white"/>
</clipPath>
</defs>
</svg>
