<svg width="56" height="56" viewBox="0 0 56 56" fill="none" xmlns="http://www.w3.org/2000/svg">
<path d="M52.5 30.625H50.589C50.6926 30.3448 50.7471 30.0488 50.75 29.75C50.75 29.0538 50.4734 28.3861 49.9812 27.8938C49.4889 27.4016 48.8212 27.125 48.125 27.125H48.0734C47.9002 25.6007 47.2866 24.16 46.3076 22.979C45.3286 21.7979 44.0266 20.9278 42.5609 20.475C42.7653 20.0989 42.8732 19.678 42.875 19.25C42.875 18.5538 42.5984 17.8861 42.1062 17.3938C41.6139 16.9016 40.9462 16.625 40.25 16.625C39.5538 16.625 38.8861 16.9016 38.3938 17.3938C37.9016 17.8861 37.625 18.5538 37.625 19.25C37.6273 19.6782 37.7358 20.0991 37.9409 20.475C36.4752 20.9278 35.1732 21.7979 34.1942 22.979C33.2151 24.16 32.6015 25.6007 32.4284 27.125H32.375C31.6788 27.125 31.0111 27.4016 30.5188 27.8938C30.0266 28.3861 29.75 29.0538 29.75 29.75C29.7529 30.0488 29.8074 30.3448 29.911 30.625H28.875V24.5C28.875 24.2679 28.7828 24.0454 28.6187 23.8813C28.4546 23.7172 28.2321 23.625 28 23.625H26.089C25.9087 23.115 25.5752 22.6731 25.1341 22.3598C24.6931 22.0466 24.166 21.8772 23.625 21.875H16.1455C15.7141 19.9523 14.9905 18.1071 14 16.4036V14C14 13.7894 13.9241 13.5859 13.7862 13.4268C13.6483 13.2677 13.4577 13.1636 13.2493 13.1338L13.1889 13.125H14.875C15.1071 13.125 15.3296 13.0328 15.4937 12.8687C15.6578 12.7046 15.75 12.4821 15.75 12.25V10.1658L17.0161 9.53313C17.2043 9.43871 17.3522 9.27958 17.4326 9.08494C17.5129 8.8903 17.5204 8.67321 17.4536 8.4735L16.625 5.98325V3.5C16.625 2.80381 16.3484 2.13613 15.8562 1.64384C15.3639 1.15156 14.6962 0.875 14 0.875H8.75C8.05381 0.875 7.38613 1.15156 6.89384 1.64384C6.40156 2.13613 6.125 2.80381 6.125 3.5V5.25C6.12546 7.05334 6.30336 8.85225 6.65612 10.6207L6.986 12.2684C6.78244 12.2654 6.58439 12.3345 6.42687 12.4635C6.33208 12.5457 6.25606 12.6473 6.20397 12.7614C6.15189 12.8755 6.12495 12.9995 6.125 13.125V15.4149C5.00496 16.6704 4.38256 18.292 4.375 19.9745V33.25C4.375 33.4821 4.46719 33.7046 4.63128 33.8687C4.79538 34.0328 5.01794 34.125 5.25 34.125H5.29287L6.125 50.7762V54.25C6.125 54.4821 6.21719 54.7046 6.38128 54.8687C6.54538 55.0328 6.76794 55.125 7 55.125H16.625C16.7579 55.125 16.8891 55.0946 17.0085 55.0364C17.128 54.9781 17.2326 54.8933 17.3144 54.7886C17.3962 54.6838 17.453 54.5618 17.4807 54.4318C17.5083 54.3018 17.5059 54.1672 17.4737 54.0382L17.2357 53.0845C17.0447 52.3216 16.6443 51.6272 16.0797 51.0798C15.5151 50.5323 14.8087 50.1535 14.0402 49.9861L14.833 34.125H15.75C15.9821 34.125 16.2046 34.0328 16.3687 33.8687C16.5328 33.7046 16.625 33.4821 16.625 33.25V27.0865C16.8875 27.1022 17.15 27.125 17.4125 27.125H23.625C24.166 27.1228 24.6931 26.9534 25.1341 26.6402C25.5752 26.3269 25.9087 25.885 26.089 25.375H27.125V30.625H24.5C24.2679 30.625 24.0454 30.7172 23.8813 30.8813C23.7172 31.0454 23.625 31.2679 23.625 31.5V46.375C23.625 46.607 23.7173 46.8296 23.8814 46.9936L24.7564 47.8686C25.3927 48.5008 26.2312 48.889 27.125 48.965V50.036C26.5412 50.2424 26.0491 50.6486 25.7358 51.1827C25.4225 51.7168 25.3081 52.3445 25.4128 52.9548C25.5175 53.5651 25.8346 54.1187 26.308 54.5178C26.7815 54.917 27.3808 55.1359 28 55.1359C28.6192 55.1359 29.2185 54.917 29.692 54.5178C30.1654 54.1187 30.4825 53.5651 30.5872 52.9548C30.6919 52.3445 30.5775 51.7168 30.2642 51.1827C29.9509 50.6486 29.4588 50.2424 28.875 50.036V48.965C29.7688 48.889 30.6073 48.5008 31.2436 47.8686C31.4394 47.6719 31.6722 47.516 31.9285 47.4098C32.1849 47.3036 32.4598 47.2493 32.7373 47.25H33.7627C34.0402 47.2493 34.3151 47.3036 34.5715 47.4098C34.8278 47.516 35.0606 47.6719 35.2564 47.8686C35.6141 48.2284 36.0397 48.5137 36.5085 48.7079C36.9772 48.9021 37.4799 49.0014 37.9873 49H39.0127C39.5201 49.0014 40.0228 48.9021 40.4915 48.7079C40.9603 48.5137 41.3859 48.2284 41.7436 47.8686C41.9394 47.6719 42.1722 47.516 42.4285 47.4098C42.6849 47.3036 42.9598 47.2493 43.2373 47.25H44.2627C44.5402 47.2493 44.8151 47.3036 45.0715 47.4098C45.3278 47.516 45.5606 47.6719 45.7564 47.8686C46.3927 48.5008 47.2312 48.889 48.125 48.965V50.036C47.5412 50.2424 47.0491 50.6486 46.7358 51.1827C46.4225 51.7168 46.3081 52.3445 46.4128 52.9548C46.5175 53.5651 46.8346 54.1187 47.308 54.5178C47.7815 54.917 48.3808 55.1359 49 55.1359C49.6192 55.1359 50.2185 54.917 50.692 54.5178C51.1654 54.1187 51.4825 53.5651 51.5872 52.9548C51.6919 52.3445 51.5775 51.7168 51.2642 51.1827C50.9509 50.6486 50.4588 50.2424 49.875 50.036V48.965C50.7688 48.889 51.6073 48.5008 52.2436 47.8686L53.1186 46.9936C53.2827 46.8296 53.375 46.607 53.375 46.375V31.5C53.375 31.2679 53.2828 31.0454 53.1187 30.8813C52.9546 30.7172 52.7321 30.625 52.5 30.625ZM8.30812 9.90937C8.07805 8.65976 7.94059 7.39486 7.89687 6.125H11.011C10.6773 6.72322 10.5015 7.39653 10.5 8.0815C10.5007 8.36244 10.4169 8.6371 10.2595 8.86977C10.102 9.10244 9.8782 9.28235 9.61713 9.38613L8.30812 9.90937ZM7.875 14.1339L12.25 14.7586V15.6161L7.875 14.9914V14.1339ZM14.4839 8.84187C14.3384 8.91456 14.2161 9.02633 14.1306 9.16466C14.0452 9.30299 13.9999 9.4624 14 9.625V11.375H12.25C12.0179 11.375 11.7954 11.4672 11.6313 11.6313C11.4672 11.7954 11.375 12.0179 11.375 12.25V12.8625L8.75 12.4871V12.25C8.75006 12.1912 8.7442 12.1326 8.7325 12.075L8.645 11.655L10.2629 11.0075C10.8498 10.7759 11.3532 10.3729 11.7077 9.85096C12.0622 9.32903 12.2511 8.71241 12.25 8.0815C12.2509 7.6848 12.356 7.29529 12.5547 6.95193C12.7534 6.60858 13.0387 6.32343 13.3822 6.125H14.875C14.8752 6.21901 14.8906 6.31238 14.9205 6.4015L15.5549 8.30638L14.4839 8.84187ZM7.875 3.5C7.875 3.26794 7.96719 3.04538 8.13128 2.88128C8.29538 2.71719 8.51794 2.625 8.75 2.625H14C14.2321 2.625 14.4546 2.71719 14.6187 2.88128C14.7828 3.04538 14.875 3.26794 14.875 3.5V4.375H7.875V3.5ZM15.5006 53.375H7.875V51.625H13.125C13.6562 51.6239 14.1736 51.7934 14.6013 52.1084C15.0289 52.4234 15.3442 52.8674 15.5006 53.375ZM12.2938 49.875H7.83125L7.04375 34.125H13.0812L12.2938 49.875ZM14.875 32.375H6.125V19.9745C6.12961 18.769 6.55797 17.6035 7.33513 16.6819L12.5676 17.4291C12.8957 18.0065 13.1905 18.6022 13.4505 19.2133L12.7181 18.4809C12.0899 17.8527 11.2379 17.4998 10.3495 17.4998C9.46109 17.4998 8.60907 17.8527 7.98088 18.4809C7.35268 19.1091 6.99976 19.9611 6.99976 20.8495C6.99976 21.7379 7.35268 22.5899 7.98088 23.2181C9.85866 25.1042 12.2611 26.3809 14.875 26.8818V32.375ZM9.21812 21.9809C8.92863 21.6787 8.76903 21.2751 8.77352 20.8566C8.77802 20.4381 8.94625 20.0381 9.24217 19.7422C9.53809 19.4462 9.93815 19.278 10.3566 19.2735C10.7751 19.269 11.1787 19.4286 11.4809 19.7181L15.1314 23.3686C15.2954 23.5327 15.518 23.625 15.75 23.625H21V25.375H17.4125C15.8901 25.3791 14.3819 25.0812 12.9754 24.4986C11.5688 23.916 10.2918 23.0603 9.21812 21.9809ZM23.625 25.375H22.75V23.625H23.625C23.8571 23.625 24.0796 23.7172 24.2437 23.8813C24.4078 24.0454 24.5 24.2679 24.5 24.5C24.5 24.7321 24.4078 24.9546 24.2437 25.1187C24.0796 25.2828 23.8571 25.375 23.625 25.375ZM39.375 19.25C39.375 19.0769 39.4263 18.9078 39.5225 18.7639C39.6186 18.62 39.7553 18.5078 39.9152 18.4416C40.075 18.3754 40.251 18.3581 40.4207 18.3918C40.5904 18.4256 40.7463 18.5089 40.8687 18.6313C40.9911 18.7537 41.0744 18.9096 41.1082 19.0793C41.1419 19.249 41.1246 19.425 41.0584 19.5848C40.9922 19.7447 40.88 19.8814 40.7361 19.9775C40.5922 20.0737 40.4231 20.125 40.25 20.125C40.0179 20.125 39.7954 20.0328 39.6313 19.8687C39.4672 19.7046 39.375 19.4821 39.375 19.25ZM40.25 21.875C41.7213 21.8778 43.1425 22.4097 44.2542 23.3736C45.3658 24.3374 46.0937 25.6689 46.305 27.125H34.195C34.4063 25.6689 35.1342 24.3374 36.2458 23.3736C37.3575 22.4097 38.7787 21.8778 40.25 21.875ZM31.5 29.75C31.5 29.5179 31.5922 29.2954 31.7563 29.1313C31.9204 28.9672 32.1429 28.875 32.375 28.875H48.125C48.3571 28.875 48.5796 28.9672 48.7437 29.1313C48.9078 29.2954 49 29.5179 49 29.75C49 29.9821 48.9078 30.2046 48.7437 30.3687C48.5796 30.5328 48.3571 30.625 48.125 30.625H32.375C32.1429 30.625 31.9204 30.5328 31.7563 30.3687C31.5922 30.2046 31.5 29.9821 31.5 29.75ZM28 53.375C27.8269 53.375 27.6578 53.3237 27.5139 53.2275C27.37 53.1314 27.2578 52.9947 27.1916 52.8348C27.1254 52.675 27.1081 52.499 27.1418 52.3293C27.1756 52.1596 27.2589 52.0037 27.3813 51.8813C27.5037 51.7589 27.6596 51.6756 27.8293 51.6418C27.999 51.6081 28.175 51.6254 28.3348 51.6916C28.4947 51.7578 28.6314 51.87 28.7275 52.0139C28.8237 52.1578 28.875 52.3269 28.875 52.5C28.875 52.7321 28.7828 52.9546 28.6187 53.1187C28.4546 53.2828 28.2321 53.375 28 53.375ZM49 53.375C48.8269 53.375 48.6578 53.3237 48.5139 53.2275C48.37 53.1314 48.2578 52.9947 48.1916 52.8348C48.1254 52.675 48.1081 52.499 48.1418 52.3293C48.1756 52.1596 48.2589 52.0037 48.3813 51.8813C48.5037 51.7589 48.6596 51.6756 48.8293 51.6418C48.999 51.6081 49.175 51.6254 49.3348 51.6916C49.4947 51.7578 49.6314 51.87 49.7275 52.0139C49.8237 52.1578 49.875 52.3269 49.875 52.5C49.875 52.7321 49.7828 52.9546 49.6187 53.1187C49.4546 53.2828 49.2321 53.375 49 53.375ZM51.625 46.0127L51.0064 46.6314C50.8106 46.8281 50.5778 46.984 50.3215 47.0902C50.0651 47.1964 49.7902 47.2507 49.5127 47.25H48.4873C48.042 47.2487 47.6088 47.1059 47.25 46.8423V39.375H45.5V45.7188C45.1024 45.5785 44.6844 45.5046 44.2627 45.5H43.2373C42.8156 45.5046 42.3976 45.5785 42 45.7188V35.875H40.25V46.8423C39.8912 47.1059 39.458 47.2487 39.0127 47.25H37.9873C37.542 47.2487 37.1088 47.1059 36.75 46.8423V39.375H35V45.7188C34.6024 45.5785 34.1844 45.5046 33.7627 45.5H32.7373C32.3156 45.5046 31.8976 45.5785 31.5 45.7188V35.875H29.75V46.8423C29.3912 47.1059 28.958 47.2487 28.5127 47.25H27.4872C27.2098 47.2507 26.9349 47.1964 26.6785 47.0902C26.4222 46.984 26.1894 46.8281 25.9936 46.6314L25.375 46.0127V32.375H51.625V46.0127Z" fill="#FEA116"/>
<path d="M35 8.75H38.5C39.1962 8.75 39.8639 8.47344 40.3562 7.98116C40.8484 7.48887 41.125 6.82119 41.125 6.125C41.125 5.89294 41.2172 5.67038 41.3813 5.50628C41.5454 5.34219 41.7679 5.25 42 5.25H42.875C43.5712 5.25 44.2389 4.97344 44.7312 4.48116C45.2234 3.98887 45.5 3.32119 45.5 2.625V0.875H43.75V2.625C43.75 2.85706 43.6578 3.07962 43.4937 3.24372C43.3296 3.40781 43.1071 3.5 42.875 3.5H42C41.3038 3.5 40.6361 3.77656 40.1438 4.26884C39.6516 4.76113 39.375 5.42881 39.375 6.125C39.375 6.35706 39.2828 6.57962 39.1187 6.74372C38.9546 6.90781 38.7321 7 38.5 7H35C34.3038 7 33.6361 7.27656 33.1438 7.76884C32.6516 8.26113 32.375 8.92881 32.375 9.625C32.375 10.3212 32.6516 10.9889 33.1438 11.4812C33.6361 11.9734 34.3038 12.25 35 12.25H36.75C36.9821 12.25 37.2046 12.3422 37.3687 12.5063C37.5328 12.6704 37.625 12.8929 37.625 13.125V14.875H39.375V13.125C39.375 12.4288 39.0984 11.7611 38.6062 11.2688C38.1139 10.7766 37.4462 10.5 36.75 10.5H35C34.7679 10.5 34.5454 10.4078 34.3813 10.2437C34.2172 10.0796 34.125 9.85706 34.125 9.625C34.125 9.39294 34.2172 9.17038 34.3813 9.00628C34.5454 8.84219 34.7679 8.75 35 8.75ZM51.625 2.625C51.625 2.85706 51.5328 3.07962 51.3687 3.24372C51.2046 3.40781 50.9821 3.5 50.75 3.5H49C48.3038 3.5 47.6361 3.77656 47.1438 4.26884C46.6516 4.76113 46.375 5.42881 46.375 6.125C46.375 6.82119 46.6516 7.48887 47.1438 7.98116C47.6361 8.47344 48.3038 8.75 49 8.75C49.2321 8.75 49.4546 8.84219 49.6187 9.00628C49.7828 9.17038 49.875 9.39294 49.875 9.625C49.875 9.85706 49.7828 10.0796 49.6187 10.2437C49.4546 10.4078 49.2321 10.5 49 10.5H43.75C43.0538 10.5 42.3861 10.7766 41.8938 11.2688C41.4016 11.7611 41.125 12.4288 41.125 13.125V14.875H42.875V13.125C42.875 12.8929 42.9672 12.6704 43.1313 12.5063C43.2954 12.3422 43.5179 12.25 43.75 12.25H49C49.6962 12.25 50.3639 11.9734 50.8562 11.4812C51.3484 10.9889 51.625 10.3212 51.625 9.625C51.625 8.92881 51.3484 8.26113 50.8562 7.76884C50.3639 7.27656 49.6962 7 49 7C48.7679 7 48.5454 6.90781 48.3813 6.74372C48.2172 6.57962 48.125 6.35706 48.125 6.125C48.125 5.89294 48.2172 5.67038 48.3813 5.50628C48.5454 5.34219 48.7679 5.25 49 5.25H50.75C51.4462 5.25 52.1139 4.97344 52.6062 4.48116C53.0984 3.98887 53.375 3.32119 53.375 2.625V0.875H51.625V2.625Z" fill="#FEA116"/>
</svg>
