<svg width="56" height="56" viewBox="0 0 56 56" fill="none" xmlns="http://www.w3.org/2000/svg">
<path d="M12.7394 18.0965C13.4088 18.429 14.1443 18.5931 14.8749 18.5931C15.8101 18.5931 16.7376 18.324 17.5065 17.7957C18.341 17.2221 19.7011 15.8429 19.4353 13.0467C19.1745 10.3008 16.9777 7.61621 15.1757 6.15113C14.8897 5.91871 14.5064 5.84598 14.1553 5.95699C13.8042 6.06856 13.5329 6.34856 13.4328 6.70348C13.102 7.87926 12.5048 8.77832 11.9273 9.64785C11.0758 10.9303 10.1948 12.2559 10.2872 14.2471C10.3671 15.9588 11.2606 17.3621 12.7394 18.0965ZM13.75 10.8581C14.1378 10.274 14.5572 9.64293 14.9214 8.90082C16.1016 10.1575 17.1171 11.7736 17.2577 13.2534C17.378 14.5178 17.0351 15.465 16.2673 15.9927C15.5531 16.4838 14.5266 16.5418 13.7128 16.1376C13.2742 15.9194 12.5299 15.3709 12.4731 14.1454C12.414 12.87 13.0035 11.9819 13.75 10.8581Z" fill="#FEA116"/>
<path d="M48.1862 33.7361C49.3227 32.3618 50.0516 30.6353 50.2392 28.875C50.4427 26.9647 49.9756 25.1814 48.924 23.8541C47.8527 22.5022 46.1737 21.5616 43.9266 21.0525C45.0499 20.4389 45.827 19.7028 46.2853 18.8212C46.8322 17.769 46.8727 16.5238 46.3985 15.3141C45.9763 14.2362 45.1828 13.2732 44.1651 12.6021C42.5135 11.5139 40.2462 11.0244 37.6064 11.1863C34.4941 11.3771 31.4087 12.3845 28.9198 14.0224C28.0148 14.6179 26.7641 15.5771 26.3555 17.0247C25.9563 18.4389 26.4715 20.0194 27.6998 21.1487C27.8578 21.2942 28.0339 21.4375 28.2226 21.5753C28.5135 21.788 28.8241 21.9772 29.1495 22.1446C28.7722 22.2425 28.397 22.342 28.0235 22.4432C25.7545 23.0578 23.742 24.4157 22.3557 26.2669C22.1484 26.5436 21.9614 26.8236 21.799 27.0998C21.5682 27.4925 21.3741 27.9075 21.2188 28.3346V21.875C21.2188 21.2367 20.9098 20.6335 20.3924 20.2611C19.8713 19.886 19.1953 19.7843 18.5845 19.9888C17.6821 20.2912 16.7437 20.4246 15.7943 20.3858C15.3929 20.3694 14.9893 20.3207 14.5939 20.2403C14.2127 20.1627 13.8294 20.0539 13.4236 19.939L13.3766 19.9253C13.02 19.8242 12.6514 19.7197 12.2713 19.6328C11.614 19.4824 11.0305 19.4151 10.4863 19.4266C9.40844 19.4507 8.53125 20.3464 8.53125 21.4238V47.9062H7V50.0937H9.625H20.125H49V47.9062H43.4027C45.272 46.7753 46.8617 45.2675 48.0195 43.5225C49.2368 41.6882 49.9532 39.6358 50.0916 37.5883C50.1216 37.1432 49.8783 36.7243 49.4763 36.5301C48.4843 36.05 47.4217 35.7087 46.3154 35.508C47.0471 34.9393 47.6919 34.3339 48.1862 33.7361ZM28.4605 17.6192C28.618 17.0603 29.1616 16.4817 30.1219 15.85C32.2973 14.4189 35.0027 13.5378 37.7404 13.37C38.0034 13.3535 38.2856 13.3437 38.5804 13.3437C39.9755 13.3437 41.6549 13.5679 42.9614 14.4287C44.0869 15.1703 44.9351 16.6747 44.3439 17.8117C44.0032 18.4663 43.2168 19.0487 42.006 19.542C39.1776 20.6942 35.8531 20.8304 32.6818 20.8064C31.5077 20.7971 30.3822 20.4427 29.5127 19.8078C29.3902 19.7186 29.2786 19.6273 29.1807 19.5376C28.5715 18.9792 28.2893 18.2257 28.4605 17.6192ZM22.2299 31.4141C22.2841 31.4305 22.3382 31.4475 22.3918 31.465C22.4208 31.4743 22.4492 31.4835 22.4782 31.4928C22.5384 31.5125 22.598 31.5333 22.6581 31.5546C22.6795 31.5623 22.7013 31.5694 22.7227 31.5771C22.8036 31.606 22.884 31.6361 22.9644 31.6673C22.9813 31.6739 22.9977 31.681 23.0147 31.6875C23.0787 31.7127 23.1421 31.7378 23.2055 31.7641C23.2329 31.7756 23.2602 31.7871 23.2881 31.7985C23.3417 31.821 23.3948 31.8439 23.4478 31.8675C23.4768 31.88 23.5058 31.8932 23.5348 31.9063C23.5884 31.9303 23.642 31.955 23.695 31.9801C23.7213 31.9927 23.748 32.0047 23.7743 32.0173C23.8416 32.0496 23.9083 32.0824 23.975 32.1163C23.9865 32.1223 23.998 32.1278 24.0095 32.1332C24.0877 32.1732 24.1653 32.2136 24.2424 32.2552C24.2648 32.2672 24.2867 32.2798 24.3091 32.2918C24.3644 32.3219 24.4196 32.3525 24.4743 32.3837C24.5016 32.399 24.529 32.4149 24.5558 32.4307C24.6066 32.4603 24.657 32.4898 24.7073 32.5199C24.7341 32.5363 24.7614 32.5521 24.7882 32.5685C24.8418 32.6014 24.8948 32.6347 24.9484 32.6681C24.9703 32.6818 24.9927 32.6954 25.0146 32.7096C25.0217 32.714 25.0283 32.7189 25.0354 32.7233C25.0184 32.7714 25.0031 32.8168 24.99 32.8551C24.99 32.8557 24.9895 32.8568 24.9895 32.8573C24.9895 32.8578 24.9895 32.8578 24.9889 32.8584C24.9884 32.8589 24.9889 32.8589 24.9884 32.8595C24.9621 32.9366 24.9353 33.0164 24.9102 33.0974C24.9102 33.0979 24.9102 33.0979 24.9096 33.0985V33.099C24.9091 33.1001 24.9091 33.1012 24.9085 33.1023C24.8954 33.1428 24.8828 33.1843 24.8702 33.2253C24.8593 33.2603 24.8484 33.2948 24.8374 33.3303C24.8352 33.3369 24.833 33.344 24.8309 33.3506C24.8084 33.4255 24.7866 33.501 24.7658 33.5759C24.7614 33.5912 24.7576 33.6049 24.7543 33.6169C24.7368 33.6793 24.7204 33.741 24.704 33.8034L24.7029 33.8072C24.7029 33.8083 24.7023 33.8094 24.7018 33.8105L24.6892 33.8592C24.6712 33.9275 24.6537 33.997 24.6373 34.0659C24.6373 34.0664 24.6373 34.067 24.6367 34.0675C24.6334 34.0796 24.6302 34.0932 24.6269 34.108C24.6269 34.1085 24.6263 34.1091 24.6263 34.1102C24.6165 34.1496 24.6083 34.1895 24.599 34.2294C24.5924 34.2589 24.5848 34.2885 24.5782 34.3185C24.5766 34.3251 24.5755 34.3317 24.5738 34.3382C24.5705 34.3514 24.5678 34.3645 24.5651 34.3776C24.5596 34.4022 24.5541 34.4268 24.5492 34.4514C24.5383 34.5028 24.5273 34.5543 24.517 34.6046C24.3255 35.5485 24.2288 36.523 24.2288 37.5008C24.2288 38.0619 24.2605 38.6241 24.3234 39.1721C24.5498 41.1578 25.1962 43.0888 26.192 44.7551C26.2489 44.8508 26.3074 44.9449 26.367 45.0389C26.3851 45.0674 26.4037 45.0958 26.4217 45.1243C26.4638 45.1893 26.5059 45.2544 26.5491 45.3189C26.571 45.3518 26.5929 45.384 26.6153 45.4163C26.6563 45.477 26.6984 45.5366 26.7405 45.5962C26.7635 45.6285 26.7859 45.6602 26.8089 45.6925C26.822 45.7105 26.8346 45.7291 26.8483 45.7471C26.8373 45.7417 26.8264 45.7373 26.816 45.7318C26.7996 45.7236 26.7837 45.716 26.7673 45.7078C26.6842 45.6668 26.6011 45.6241 26.5185 45.5809C26.5059 45.5743 26.4939 45.5683 26.4813 45.5618C26.3922 45.5147 26.3036 45.4655 26.2155 45.4157C26.1959 45.4048 26.1767 45.3933 26.157 45.3824C26.0679 45.3315 25.9793 45.2796 25.8907 45.226C25.8885 45.2243 25.8858 45.2232 25.8836 45.2216C25.7977 45.1691 25.7119 45.115 25.6271 45.0603C25.608 45.0482 25.5888 45.0357 25.5702 45.0236C25.4855 44.9684 25.4012 44.9121 25.3181 44.8546C25.3039 44.8448 25.2897 44.8344 25.2749 44.8246C25.1995 44.7721 25.1245 44.7185 25.0502 44.6643C25.0348 44.6534 25.0201 44.6425 25.0048 44.6315C24.9233 44.5714 24.8418 44.5096 24.7614 44.4472C24.7434 44.4335 24.7259 44.4193 24.7078 44.4051C24.6302 44.3439 24.553 44.2821 24.4765 44.2186C24.471 44.2143 24.4661 44.2104 24.4606 44.2061C24.3808 44.1399 24.3015 44.0721 24.2233 44.0032C24.2052 43.9873 24.1877 43.972 24.1697 43.9561C24.092 43.8878 24.0155 43.8183 23.9395 43.7478C23.9291 43.7385 23.9192 43.7286 23.9094 43.7193C23.8399 43.6543 23.771 43.5881 23.7027 43.5214C23.6879 43.5066 23.6726 43.4924 23.6578 43.4776C23.5845 43.4049 23.5118 43.331 23.4396 43.2561C23.4248 43.2408 23.4101 43.225 23.3953 43.2096C23.328 43.1391 23.2619 43.068 23.1963 42.9958C23.188 42.9871 23.1798 42.9783 23.1722 42.9696C23.1016 42.8914 23.0322 42.8121 22.9633 42.7317C22.948 42.7136 22.9327 42.6961 22.9173 42.6781C22.8484 42.5971 22.7806 42.5151 22.7134 42.432C22.7084 42.426 22.7035 42.42 22.6986 42.4139C22.6352 42.3346 22.5728 42.2548 22.511 42.1739C22.4973 42.1564 22.4842 42.1389 22.4705 42.1208C22.4066 42.0366 22.3442 41.9513 22.2824 41.8649C22.2715 41.8496 22.2605 41.8337 22.2496 41.8184C22.1933 41.7391 22.1375 41.6587 22.0828 41.5778C22.0735 41.5641 22.0642 41.551 22.0555 41.5373C21.9964 41.4487 21.9379 41.359 21.881 41.2688C21.8684 41.2485 21.8559 41.2289 21.8433 41.2086C21.7853 41.1162 21.7284 41.0227 21.6727 40.9286C21.4676 40.5808 21.2795 40.2243 21.1127 39.8688C21.0465 39.7277 20.9825 39.5855 20.9218 39.4428C20.5877 38.6575 20.3394 37.8486 20.1808 37.0278C20.1376 36.8041 20.1009 36.5793 20.0709 36.354C20.0709 36.354 20.0709 36.354 20.0709 36.3535C20.055 36.2326 20.0408 36.1123 20.0287 35.9925C20.0249 35.9526 20.0216 35.9127 20.0184 35.8722C20.0112 35.7924 20.0036 35.7125 19.9981 35.6327C19.9948 35.5851 19.9927 35.537 19.9899 35.4894C19.9855 35.4178 19.9817 35.3461 19.979 35.275C19.9768 35.2242 19.9763 35.1739 19.9752 35.123C19.9735 35.0552 19.9719 34.9868 19.9713 34.919C19.9708 34.8671 19.9719 34.8151 19.9724 34.7632C19.973 34.697 19.9735 34.6308 19.9757 34.5652C19.9773 34.5127 19.9795 34.4602 19.9817 34.4077C19.9845 34.3432 19.9872 34.2781 19.991 34.2135C19.9943 34.161 19.9981 34.1085 20.002 34.056C20.0069 33.9921 20.0118 33.9286 20.0178 33.8646C20.0227 33.8121 20.0282 33.7602 20.0337 33.7077C20.0408 33.6443 20.0479 33.5814 20.0561 33.5185C20.0627 33.4665 20.0698 33.4151 20.0769 33.3632C20.0856 33.3003 20.0955 33.2374 20.1059 33.175C20.1141 33.1242 20.1223 33.0733 20.1316 33.0225C20.1425 32.9596 20.1551 32.8972 20.1671 32.8349C20.177 32.7851 20.1868 32.7353 20.1972 32.6856C20.2109 32.6221 20.2256 32.5598 20.2404 32.4969C20.2519 32.4488 20.2628 32.4007 20.2748 32.3525C20.2907 32.288 20.3082 32.2246 20.3257 32.1606C20.3383 32.1152 20.3498 32.0693 20.3629 32.0239C20.3826 31.956 20.4034 31.8893 20.4241 31.8221C20.4367 31.781 20.4488 31.74 20.4624 31.6996C20.4881 31.6208 20.5155 31.5432 20.5434 31.465C20.5532 31.4365 20.5625 31.4081 20.5729 31.3796C20.6112 31.2757 20.6511 31.1724 20.6927 31.0701C20.9491 31.1062 21.2051 31.1532 21.4594 31.2101C21.5206 31.2238 21.5819 31.238 21.6459 31.2533C21.7279 31.273 21.8099 31.2943 21.892 31.3162C21.9182 31.3233 21.9439 31.3304 21.9702 31.3381C22.0265 31.3539 22.0834 31.3698 22.1397 31.3862C22.1703 31.396 22.2004 31.4048 22.2299 31.4141ZM31.4355 29.1637C32.4559 30.1426 33.2866 31.355 33.8773 32.743L33.8866 32.7649C33.9024 32.8026 33.9183 32.8409 33.9358 32.883C33.956 32.9317 33.9757 32.9809 33.9948 33.0296C34.0096 33.0673 34.0249 33.1061 34.0391 33.145C34.0402 33.1482 34.0413 33.1515 34.043 33.1543C34.0922 33.2828 34.1409 33.4173 34.1879 33.5573C34.2377 33.7039 34.2869 33.857 34.3328 34.0112C34.3448 34.0517 34.3569 34.0921 34.3689 34.1364C34.3826 34.1857 34.3963 34.2343 34.4099 34.2836C34.4105 34.2857 34.411 34.2879 34.4116 34.2907C34.4203 34.3218 34.4285 34.3525 34.4367 34.3842L34.4422 34.4044C34.4449 34.417 34.4482 34.429 34.4515 34.441C34.4515 34.4416 34.452 34.4421 34.452 34.4432C34.4635 34.4875 34.4745 34.5318 34.4848 34.575C34.5204 34.7227 34.5543 34.8725 34.5838 35.0185C34.6041 35.1192 34.6238 35.2214 34.6418 35.3221C34.6511 35.3729 34.6593 35.4238 34.6686 35.4768C34.6757 35.5178 34.6823 35.5583 34.6883 35.5993C34.6894 35.607 34.6905 35.6141 34.6916 35.6218C34.6992 35.6732 34.7069 35.7251 34.7134 35.7716C34.7216 35.8323 34.7298 35.8935 34.738 35.9581C34.743 35.9975 34.7479 36.0368 34.7523 36.0762C34.7528 36.0811 34.7534 36.0855 34.7539 36.0904C34.7692 36.2217 34.7823 36.3557 34.7927 36.4896C34.7927 36.4918 34.7933 36.4946 34.7933 36.4968C34.7966 36.5334 34.7993 36.5695 34.8015 36.6061C34.802 36.6138 34.8026 36.6209 34.8031 36.6285C34.8059 36.6701 34.8086 36.7111 34.8108 36.7516C34.8141 36.8046 34.8168 36.8577 34.8195 36.9107C34.8195 36.9168 34.8201 36.9228 34.8206 36.9288C34.8212 36.9397 34.8217 36.9501 34.8217 36.9605C34.8217 36.9692 34.8223 36.9775 34.8228 36.9862C34.8239 37.0152 34.825 37.0442 34.8261 37.0732C34.8261 37.0764 34.8261 37.0792 34.8266 37.0825C34.8272 37.1032 34.8283 37.1246 34.8288 37.1459C34.8288 37.1508 34.8288 37.1552 34.8294 37.1601C34.831 37.2039 34.8316 37.2482 34.8321 37.2925C34.8321 37.2968 34.8321 37.3018 34.8327 37.3061C34.8332 37.3105 34.8327 37.3154 34.8332 37.3198C34.8343 37.3805 34.8348 37.4423 34.8348 37.5035C34.8348 37.9815 34.8075 38.46 34.7545 38.9265C34.743 39.0271 34.7298 39.1278 34.7162 39.2273C34.7113 39.2607 34.7058 39.294 34.7009 39.3274C34.691 39.3941 34.6812 39.4603 34.6702 39.5264C34.6637 39.5658 34.6566 39.6052 34.6495 39.6451C34.6391 39.7047 34.6287 39.7643 34.6172 39.8234C34.609 39.8655 34.6008 39.9071 34.592 39.9486C34.5805 40.0055 34.5691 40.0618 34.557 40.1182C34.5477 40.1608 34.5379 40.2035 34.528 40.2461C34.5155 40.3014 34.5029 40.356 34.4892 40.4113C34.4788 40.4539 34.4679 40.4971 34.457 40.5398C34.4433 40.5939 34.4291 40.6475 34.4143 40.7011C34.4028 40.7438 34.3908 40.787 34.3787 40.8296C34.3634 40.8832 34.3481 40.9363 34.3323 40.9893C34.3197 41.0314 34.3071 41.0735 34.294 41.1157C34.2776 41.1693 34.2601 41.2223 34.2431 41.2753C34.23 41.3164 34.2163 41.3574 34.2027 41.3984C34.1846 41.4525 34.1655 41.5061 34.1463 41.5603C34.1327 41.5996 34.119 41.639 34.1048 41.6778C34.0845 41.7336 34.0632 41.7894 34.0419 41.8452C34.0282 41.8813 34.0145 41.9179 34.0003 41.954C33.9752 42.018 33.9489 42.0809 33.9227 42.1438C33.9112 42.1711 33.9008 42.1985 33.8893 42.2258C33.8516 42.3155 33.8122 42.4041 33.7723 42.4927C33.7619 42.5162 33.7504 42.5392 33.7395 42.5627C33.7094 42.6278 33.6793 42.6928 33.6481 42.7574C33.6317 42.7913 33.6142 42.8252 33.5978 42.8591C33.5716 42.9121 33.5453 42.9652 33.518 43.0177C33.4988 43.0543 33.4797 43.0904 33.46 43.1271C33.4338 43.1763 33.408 43.2255 33.3813 43.2742C33.3605 43.3119 33.3397 43.3485 33.3189 43.3857C33.2927 43.4328 33.2659 43.4798 33.2391 43.5263C33.2172 43.564 33.1948 43.6012 33.1729 43.6384C33.1455 43.6838 33.1182 43.7292 33.0909 43.774C33.0679 43.8112 33.0449 43.8484 33.0214 43.885C32.9935 43.9293 32.9651 43.9736 32.9361 44.0174C32.912 44.054 32.8885 44.0901 32.8639 44.1262C32.8344 44.17 32.8048 44.2132 32.7748 44.2569C32.7502 44.2925 32.7261 44.3275 32.7009 44.3625C32.6703 44.4062 32.6386 44.4489 32.6074 44.4921C32.5828 44.526 32.5582 44.5599 32.533 44.5938C32.5002 44.6375 32.4669 44.6807 32.433 44.7239C32.4084 44.7557 32.3838 44.7879 32.3591 44.8196C32.3225 44.8656 32.2859 44.911 32.2487 44.9558C32.2257 44.9837 32.2033 45.0121 32.1803 45.0395C32.1322 45.0969 32.0835 45.1532 32.0343 45.2096C32.0212 45.2243 32.0086 45.2396 31.996 45.2544C31.9342 45.3244 31.8713 45.3933 31.8073 45.4617C31.7849 45.4852 31.7625 45.5087 31.7401 45.5322C31.698 45.5765 31.6553 45.6214 31.6121 45.6651C31.5853 45.6925 31.5574 45.7193 31.5301 45.746C31.4907 45.7849 31.4519 45.8237 31.412 45.862C31.3824 45.8904 31.3523 45.9178 31.3228 45.9457C31.2845 45.9818 31.2457 46.0178 31.2069 46.0528C31.1757 46.0807 31.1445 46.1086 31.1134 46.136C31.0745 46.1704 31.0357 46.2043 30.9963 46.2377C30.9641 46.265 30.9318 46.2918 30.8995 46.3192C30.8602 46.352 30.8208 46.3843 30.7809 46.4165C30.748 46.4428 30.7152 46.469 30.6819 46.4953C30.6638 46.5095 30.6452 46.5237 30.6272 46.5374C30.6091 46.5232 30.5905 46.5095 30.5725 46.4953C30.5391 46.469 30.5063 46.4433 30.4735 46.4165C30.4336 46.3843 30.3937 46.352 30.3543 46.3192C30.322 46.2924 30.2898 46.2656 30.258 46.2382C30.2187 46.2043 30.1798 46.1704 30.141 46.136C30.1098 46.1086 30.0787 46.0813 30.048 46.0534C30.0087 46.0178 29.9704 45.9818 29.9316 45.9457C29.902 45.9178 29.872 45.8904 29.843 45.8625C29.803 45.8243 29.7637 45.7854 29.7243 45.7466C29.697 45.7198 29.6696 45.693 29.6423 45.6657C29.5991 45.6219 29.5564 45.5771 29.5138 45.5322C29.4919 45.5093 29.4689 45.4863 29.447 45.4628C29.3836 45.3944 29.3207 45.3255 29.2584 45.2555C29.2458 45.2413 29.2338 45.2265 29.2212 45.2123C29.1714 45.1554 29.1222 45.0985 29.0741 45.0406C29.0511 45.0132 29.0287 44.9853 29.0063 44.9575C28.9691 44.9121 28.9313 44.8661 28.8947 44.8202C28.8701 44.789 28.8455 44.7568 28.8214 44.7256C28.788 44.6824 28.7541 44.6386 28.7213 44.5949C28.6962 44.5615 28.6716 44.5276 28.647 44.4937C28.6152 44.4505 28.5835 44.4073 28.5529 44.3635C28.5283 44.3285 28.5042 44.2935 28.4796 44.2585C28.4495 44.2148 28.4195 44.1711 28.3899 44.1268C28.3659 44.0912 28.3423 44.0551 28.3188 44.019C28.2898 43.9747 28.2609 43.9299 28.2324 43.885C28.2095 43.8484 28.1865 43.8123 28.1641 43.7757C28.1362 43.7303 28.1083 43.6843 28.0809 43.6384C28.0591 43.6018 28.0372 43.5651 28.0153 43.5279C27.988 43.4809 27.9612 43.4333 27.9344 43.3857C27.9136 43.3491 27.8934 43.3125 27.8731 43.2758C27.8458 43.2266 27.8195 43.1763 27.7933 43.1265C27.7747 43.091 27.7555 43.0554 27.737 43.0193C27.7091 42.9657 27.6823 42.911 27.6555 42.8569C27.6391 42.8241 27.6227 42.7918 27.6068 42.759C27.5745 42.6923 27.5434 42.6245 27.5122 42.5572C27.5023 42.5364 27.4925 42.5157 27.4832 42.4949C27.4433 42.4063 27.4039 42.3166 27.3656 42.2269C27.3552 42.2023 27.3454 42.1771 27.335 42.152C27.3077 42.0864 27.2809 42.0207 27.2546 41.9546C27.2409 41.9201 27.2284 41.8851 27.2147 41.8507C27.1928 41.7932 27.1709 41.7364 27.1496 41.6784C27.1359 41.6401 27.1223 41.6018 27.1091 41.5635C27.09 41.5089 27.0703 41.4542 27.0517 41.3989C27.038 41.359 27.0255 41.3185 27.0123 41.2781C26.9948 41.2239 26.9773 41.1698 26.9604 41.1157C26.9478 41.0746 26.9352 41.0331 26.9232 40.9915C26.9073 40.9374 26.8915 40.8832 26.8762 40.8291C26.8641 40.7875 26.8527 40.7454 26.8417 40.7033C26.827 40.6486 26.8127 40.5939 26.7985 40.5393C26.7876 40.4971 26.7772 40.455 26.7668 40.4129C26.7531 40.3571 26.7405 40.3014 26.7274 40.2456C26.7181 40.2035 26.7083 40.1619 26.699 40.1198C26.6864 40.0629 26.6749 40.0055 26.6634 39.9481C26.6552 39.9071 26.6465 39.866 26.6388 39.825C26.6273 39.7649 26.617 39.7042 26.606 39.644C26.5995 39.6052 26.5923 39.5669 26.5858 39.5281C26.5748 39.4614 26.565 39.3941 26.5546 39.3268C26.5497 39.294 26.5442 39.2612 26.5398 39.2284C26.5256 39.1283 26.513 39.0277 26.5016 38.9271C26.448 38.4611 26.4212 37.9826 26.4212 37.5046C26.4212 36.6723 26.5032 35.8438 26.6662 35.0399C26.6793 34.9743 26.6935 34.9086 26.7083 34.8435C26.7088 34.8414 26.7094 34.8386 26.7099 34.8364C26.7127 34.826 26.7148 34.8157 26.717 34.8053C26.7307 34.7424 26.7449 34.6795 26.7602 34.6171C26.7619 34.61 26.7635 34.6035 26.7652 34.5964C26.7652 34.5958 26.7652 34.5953 26.7657 34.5953C26.7799 34.5373 26.7936 34.4799 26.81 34.4181L26.8242 34.3645C26.8384 34.3114 26.8521 34.2584 26.8674 34.2059C26.8685 34.2021 26.8696 34.1977 26.8707 34.1933C26.8723 34.1884 26.8734 34.1829 26.8751 34.178C26.892 34.1162 26.9101 34.0544 26.9287 33.9926C26.9309 33.985 26.9336 33.9773 26.9358 33.9691C26.9555 33.9035 26.9762 33.8373 26.997 33.7717C26.997 33.7711 26.9976 33.7706 26.9976 33.77C27.0195 33.7028 27.0413 33.635 27.0638 33.5682C27.0643 33.5666 27.0648 33.565 27.0654 33.5639C27.0851 33.5053 27.1053 33.4468 27.1266 33.3894C27.1299 33.3796 27.1332 33.3703 27.137 33.3599C27.1529 33.315 27.1687 33.2713 27.1857 33.227C27.1873 33.2226 27.189 33.2188 27.1901 33.215C27.2109 33.1592 27.2316 33.1034 27.2513 33.0531C27.271 33.0033 27.2907 32.9541 27.3109 32.9049C27.312 32.9027 27.3126 32.9 27.3137 32.8978C27.3295 32.8584 27.3459 32.8196 27.3623 32.7807C27.3667 32.7703 27.3711 32.76 27.3755 32.749C28.1159 31.0094 29.2327 29.5432 30.6288 28.4703C30.9072 28.6819 31.1773 28.916 31.4355 29.1637ZM36.4427 32.5784C36.5296 32.5248 36.6171 32.4723 36.7057 32.4214C36.7123 32.4176 36.7183 32.4138 36.7248 32.41C36.82 32.3553 36.9157 32.3022 37.0114 32.2503C37.0393 32.235 37.0677 32.2207 37.0956 32.206C37.1634 32.1699 37.2318 32.1343 37.3002 32.0999C37.3352 32.0824 37.3707 32.0654 37.4057 32.0479C37.468 32.0173 37.5309 31.9872 37.5938 31.9577C37.631 31.9402 37.6682 31.9232 37.7054 31.9063C37.7683 31.8778 37.8306 31.8505 37.8941 31.8232C37.9302 31.8073 37.9668 31.792 38.0029 31.7767C38.0707 31.7482 38.1391 31.7209 38.2074 31.6941C38.2386 31.6821 38.2698 31.6689 38.3009 31.6569C38.3983 31.6197 38.4962 31.5836 38.5941 31.5492C38.5957 31.5486 38.5979 31.5475 38.5995 31.547C38.7002 31.512 38.8008 31.4786 38.902 31.4464C38.9326 31.4365 38.9632 31.4278 38.9938 31.4185C39.0644 31.3971 39.1349 31.3758 39.2055 31.3556C39.2427 31.3452 39.2804 31.3348 39.3176 31.325C39.3821 31.3075 39.4472 31.2905 39.5117 31.2741C39.5511 31.2643 39.5899 31.255 39.6293 31.2451C39.6938 31.2298 39.7589 31.215 39.8234 31.2008C39.8617 31.1926 39.9 31.1839 39.9383 31.1762C40.0083 31.162 40.0783 31.1489 40.1483 31.1357C40.1811 31.1297 40.2139 31.1232 40.2467 31.1177C40.3495 31.1002 40.4518 31.0832 40.5552 31.069C40.6213 31.2314 40.6826 31.3966 40.74 31.5639C41.0829 32.5675 41.265 33.6486 41.2759 34.761C41.2776 34.9464 41.2748 35.1323 41.2672 35.3193C41.2584 35.5299 41.2431 35.7432 41.2223 35.9559C41.2098 36.0871 41.195 36.2184 41.178 36.3491L41.1775 36.3524C41.1671 36.4322 41.1545 36.5115 41.1425 36.5914C41.1365 36.6291 41.131 36.6663 41.1245 36.7035C41.1152 36.7609 41.1053 36.8178 41.0949 36.8752C41.0873 36.9184 41.0791 36.9616 41.0709 37.0048C41.061 37.0562 41.0506 37.1076 41.0402 37.1585C41.0304 37.206 41.0205 37.2536 41.0102 37.3012C40.9998 37.3482 40.9894 37.3947 40.9784 37.4412C40.9664 37.4921 40.9549 37.5435 40.9423 37.5943C40.932 37.6375 40.9205 37.6807 40.9095 37.7234C40.8959 37.777 40.8816 37.8306 40.8674 37.8842C40.8565 37.9246 40.845 37.9651 40.8335 38.005C40.8177 38.0603 40.8018 38.116 40.7854 38.1713C40.7739 38.2101 40.7619 38.2484 40.7498 38.2872C40.7323 38.3435 40.7148 38.3999 40.6962 38.4557C40.6837 38.4934 40.6711 38.5311 40.658 38.5689C40.6388 38.6252 40.6197 38.6815 40.6 38.7378C40.5863 38.7756 40.5727 38.8133 40.559 38.851C40.5387 38.9068 40.5185 38.9621 40.4972 39.0178C40.4824 39.0567 40.4671 39.095 40.4518 39.1338C40.4305 39.1879 40.4091 39.2421 40.3873 39.2957C40.3709 39.3361 40.3534 39.3766 40.3364 39.4165C40.3145 39.4679 40.2932 39.5199 40.2702 39.5713C40.2511 39.6145 40.2314 39.6577 40.2117 39.7009C40.1898 39.749 40.1685 39.7971 40.1461 39.8453C40.1237 39.8928 40.1007 39.9399 40.0777 39.9875C40.057 40.0307 40.0362 40.0744 40.0148 40.1171C39.988 40.1712 39.9596 40.2253 39.9317 40.2795C39.9131 40.3156 39.8951 40.3517 39.8759 40.3878C39.8404 40.4545 39.8043 40.5212 39.7677 40.5874C39.7551 40.6103 39.743 40.6333 39.7299 40.6563C39.6796 40.746 39.6282 40.8357 39.5757 40.9248C39.5194 41.02 39.462 41.114 39.4034 41.207C39.3914 41.2261 39.3799 41.2447 39.3679 41.2639C39.3105 41.3552 39.2514 41.4454 39.1918 41.5346C39.1836 41.5471 39.1748 41.5597 39.1666 41.5718C39.1114 41.6538 39.0551 41.7353 38.9977 41.8162C38.9873 41.831 38.9769 41.8457 38.9665 41.8605C38.9041 41.9475 38.8412 42.0328 38.7773 42.1181C38.7647 42.135 38.7516 42.152 38.7384 42.1689C38.6755 42.251 38.6127 42.3325 38.5481 42.4128C38.5443 42.4178 38.5399 42.4232 38.5361 42.4282C38.4688 42.5118 38.4005 42.5939 38.331 42.6759C38.3162 42.6934 38.3015 42.7109 38.2862 42.7284C38.2173 42.8088 38.1473 42.8886 38.0767 42.9674C38.0691 42.9761 38.0609 42.9843 38.0532 42.9931C37.9876 43.0658 37.9209 43.1375 37.853 43.208C37.8388 43.2233 37.8241 43.2386 37.8098 43.2534C37.7377 43.3283 37.6649 43.4021 37.5916 43.4749C37.5769 43.4896 37.5621 43.5039 37.5468 43.5186C37.4784 43.5853 37.4095 43.6515 37.3401 43.7166C37.3302 43.7259 37.3198 43.7357 37.31 43.745C37.234 43.8156 37.1574 43.885 37.0798 43.9534C37.0617 43.9692 37.0437 43.9851 37.0262 44.0004C36.948 44.0688 36.8692 44.1366 36.7894 44.2028C36.7839 44.2077 36.7779 44.2121 36.7724 44.2164C36.6964 44.2793 36.6198 44.3406 36.5427 44.4013C36.5247 44.4155 36.5061 44.4303 36.4875 44.4445C36.4077 44.5068 36.3267 44.5681 36.2458 44.6277C36.2299 44.6392 36.2141 44.6507 36.1982 44.6621C36.1249 44.7157 36.0511 44.7682 35.9767 44.8202C35.9614 44.8306 35.9466 44.8415 35.9313 44.8519C35.8488 44.9088 35.7651 44.9646 35.6814 45.0198C35.6612 45.0329 35.6415 45.046 35.6213 45.0586C35.5381 45.1122 35.455 45.1647 35.3708 45.2161C35.3664 45.2189 35.3626 45.2216 35.3582 45.2238C35.2712 45.2768 35.1838 45.3277 35.0957 45.378C35.0749 45.39 35.0536 45.4021 35.0328 45.4135C34.9459 45.4628 34.8589 45.5103 34.7709 45.5574C34.7561 45.565 34.7419 45.5727 34.7271 45.5803C34.6478 45.6219 34.568 45.6629 34.4876 45.7023C34.469 45.7116 34.4509 45.7209 34.4323 45.7296C34.4225 45.7346 34.4121 45.7389 34.4023 45.7439C34.4154 45.7264 34.4274 45.7078 34.4405 45.6903C34.4641 45.6575 34.4876 45.6246 34.5111 45.5918C34.5527 45.5328 34.5942 45.4732 34.6352 45.4135C34.6577 45.3807 34.6801 45.3479 34.702 45.3151C34.7452 45.2506 34.7873 45.1861 34.8294 45.1204C34.8474 45.092 34.866 45.0635 34.8841 45.0351C34.9431 44.9416 35.0016 44.847 35.0591 44.7513C36.0549 43.0844 36.7008 41.1539 36.9277 39.1688C36.9906 38.6203 37.0223 38.0581 37.0223 37.4975C37.0223 37.427 37.0218 37.3564 37.0207 37.2864C37.0207 37.276 37.0207 37.2618 37.0202 37.2449C37.0196 37.194 37.0185 37.1432 37.0169 37.0923C37.0163 37.0606 37.0152 37.0278 37.0136 36.996C37.0125 36.9616 37.0114 36.9266 37.0098 36.8921C37.0092 36.8757 37.0081 36.8593 37.0076 36.8424C37.007 36.826 37.0065 36.809 37.0054 36.7926C37.0027 36.7363 36.9994 36.6805 36.9961 36.6242C36.9961 36.6231 36.9961 36.622 36.9961 36.6214C36.9961 36.6203 36.9961 36.6193 36.9961 36.6182C36.9934 36.5722 36.9906 36.5263 36.9873 36.4798V36.4792C36.9868 36.4705 36.9862 36.4623 36.9857 36.4535L36.9852 36.4421C36.9819 36.3983 36.9786 36.3546 36.9748 36.3108C36.9677 36.2211 36.9595 36.132 36.9507 36.0428C36.9441 35.975 36.937 35.9072 36.9294 35.84C36.9266 35.8143 36.9239 35.788 36.9206 35.7623C36.9173 35.735 36.9141 35.7076 36.9108 35.6808C36.902 35.6114 36.8927 35.5414 36.8829 35.4681C36.8758 35.4178 36.8681 35.3669 36.861 35.316C36.8599 35.3084 36.8588 35.3007 36.8577 35.2931C36.8484 35.2302 36.8386 35.1684 36.8282 35.1082C36.8184 35.0492 36.8085 34.9896 36.7976 34.9316C36.7768 34.8151 36.7544 34.697 36.7303 34.5783C36.6948 34.4044 36.6554 34.2283 36.6127 34.0539C36.5991 33.9964 36.5848 33.9401 36.5701 33.8838C36.5684 33.8772 36.5668 33.8701 36.5652 33.8635L36.5553 33.8264C36.5449 33.7859 36.534 33.7454 36.523 33.705C36.5083 33.6503 36.493 33.5956 36.4782 33.5436C36.464 33.4928 36.4492 33.4419 36.4345 33.3916C36.4339 33.39 36.4328 33.3856 36.4323 33.3845C36.3776 33.2018 36.3202 33.0219 36.2622 32.8513C36.2474 32.8075 36.2321 32.7638 36.2173 32.7206C36.2633 32.691 36.3092 32.6615 36.3552 32.6325C36.3825 32.6161 36.4126 32.597 36.4427 32.5784ZM13.7173 38.086C13.7479 38.075 13.7791 38.0646 13.8102 38.0543C13.878 38.0307 13.9464 38.0078 14.0153 37.9859C14.052 37.9744 14.0886 37.9629 14.1252 37.952C14.1898 37.9323 14.2543 37.9132 14.3188 37.8946C14.3566 37.8836 14.3948 37.8732 14.4326 37.8628C14.4982 37.8448 14.5644 37.8278 14.6305 37.8109C14.6672 37.8016 14.7038 37.7923 14.7405 37.7836C14.8127 37.7661 14.8854 37.7496 14.9581 37.7338C14.9887 37.7272 15.0194 37.7201 15.05 37.7135C15.2589 37.6698 15.47 37.6326 15.6827 37.6014C15.7101 37.5976 15.7374 37.5943 15.7648 37.5905C15.8435 37.5796 15.9228 37.5692 16.0021 37.5599C16.0387 37.5555 16.0748 37.5522 16.1115 37.5478C16.1826 37.5402 16.2542 37.5331 16.3259 37.5271C16.3652 37.5238 16.4041 37.5205 16.4434 37.5178C16.514 37.5123 16.5851 37.5079 16.6556 37.5035C16.6945 37.5014 16.7333 37.4992 16.7721 37.497C16.847 37.4937 16.9225 37.491 16.998 37.4888C17.0324 37.4877 17.0663 37.4866 17.1008 37.486C17.197 37.4844 17.2938 37.4839 17.3906 37.4844C17.4038 37.4844 17.4169 37.4844 17.4305 37.4844C17.541 37.4855 17.652 37.4882 17.763 37.4926C17.7942 37.4937 17.8259 37.4959 17.8571 37.497C17.9205 37.4997 17.9834 37.5035 18.0469 37.5074C18.0584 37.5643 18.0698 37.6211 18.0819 37.6775C18.0841 37.6884 18.0863 37.6988 18.0884 37.7097C18.1059 37.7907 18.124 37.871 18.1426 37.9514C18.148 37.9739 18.1535 37.9963 18.1584 38.0182C18.1721 38.0767 18.1863 38.1352 18.2011 38.1932C18.2082 38.2205 18.2148 38.2478 18.2219 38.2752C18.2361 38.331 18.2509 38.3862 18.2662 38.4414C18.2733 38.4671 18.2798 38.4928 18.287 38.5185C18.3066 38.5891 18.3269 38.6596 18.3471 38.7296C18.3498 38.7389 18.352 38.7477 18.3548 38.757C18.3783 38.8357 18.4023 38.915 18.4275 38.9932C18.4352 39.0173 18.4428 39.0408 18.4505 39.0649C18.4685 39.1207 18.4866 39.1764 18.5052 39.2317C18.5145 39.2596 18.5237 39.2869 18.5336 39.3148C18.5522 39.3689 18.5708 39.4225 18.5899 39.4761C18.5992 39.5018 18.608 39.5275 18.6173 39.5532C18.643 39.6249 18.6698 39.696 18.6966 39.7676C18.6993 39.7742 18.7015 39.7807 18.7037 39.7873C18.7332 39.8644 18.7633 39.9415 18.7945 40.0186C18.8043 40.0427 18.8141 40.0673 18.824 40.0914C18.8459 40.145 18.8683 40.1991 18.8907 40.2527C18.9022 40.28 18.9137 40.3074 18.9257 40.3347C18.9487 40.3878 18.9716 40.4408 18.9952 40.4939C19.0061 40.5185 19.0165 40.5425 19.0274 40.5671C19.0619 40.6437 19.0963 40.7197 19.1324 40.7952C19.3277 41.2119 19.548 41.6297 19.7881 42.0371C20.9688 44.0393 22.6029 45.7384 24.5137 46.9508C24.5782 46.9918 24.6433 47.0323 24.7084 47.0717C24.7297 47.0848 24.751 47.0974 24.7718 47.11C24.8161 47.1368 24.8609 47.1636 24.9052 47.1898C24.9298 47.2046 24.955 47.2188 24.9796 47.233C25.0217 47.2576 25.0638 47.2817 25.1059 47.3057C25.1311 47.32 25.1562 47.3342 25.1814 47.3484C25.2257 47.373 25.27 47.3971 25.3143 47.4211C25.3373 47.4337 25.3597 47.4457 25.3827 47.4583C25.4412 47.49 25.5002 47.5207 25.5593 47.5513C25.5675 47.5557 25.5752 47.56 25.5834 47.5639C25.6506 47.5983 25.7179 47.6322 25.7852 47.6656C25.8059 47.676 25.8267 47.6858 25.847 47.6957C25.8945 47.7186 25.9421 47.7421 25.9902 47.7646C26.0148 47.776 26.0395 47.7875 26.0641 47.799C26.1089 47.8198 26.1537 47.8406 26.1986 47.8608C26.2123 47.8668 26.2259 47.8734 26.2391 47.8794C24.3633 47.991 22.3951 47.6475 20.557 46.8491C20.1403 46.6686 19.7252 46.4619 19.3244 46.236C16.118 44.4275 13.9125 41.3962 13.422 38.1926C13.5215 38.1571 13.6188 38.121 13.7173 38.086ZM10.7188 47.9062V21.6141C11.0332 21.6234 11.3837 21.6732 11.7835 21.765C12.1089 21.8394 12.4343 21.9318 12.7794 22.0297L12.827 22.0434C12.8532 22.051 12.88 22.0582 12.9068 22.0658V27.125H15.0943V22.5268C15.2977 22.5482 15.5023 22.5629 15.7057 22.5711C16.8345 22.6176 17.9528 22.4732 19.0318 22.1424V29.4448C19.0269 29.4541 19.0225 29.4639 19.0181 29.4738C18.9727 29.5651 18.9284 29.6575 18.8852 29.75C18.8781 29.7647 18.871 29.7795 18.8645 29.7948C18.8191 29.8932 18.7759 29.9922 18.7332 30.0918C18.7245 30.1131 18.7152 30.1339 18.7064 30.1552C18.6643 30.2558 18.6233 30.3575 18.5839 30.4598C18.5801 30.4696 18.5768 30.4795 18.573 30.4893C18.5363 30.5861 18.5008 30.6829 18.4663 30.7808C18.4598 30.8 18.4527 30.8191 18.4461 30.8382C18.4111 30.94 18.3772 31.0422 18.3449 31.1445C18.3378 31.1664 18.3312 31.1882 18.3247 31.2101C18.2919 31.3162 18.2602 31.4223 18.2306 31.5295C18.2301 31.5322 18.229 31.535 18.2284 31.5371C18.1995 31.6427 18.1721 31.7488 18.1459 31.8549C18.1404 31.8768 18.1349 31.8992 18.1295 31.921C18.1043 32.026 18.0802 32.1316 18.0573 32.2371C18.0529 32.2579 18.0485 32.2793 18.0441 32.3C18.0228 32.4028 18.0026 32.5062 17.984 32.6101C17.9823 32.6194 17.9807 32.6282 17.9791 32.6375C17.9594 32.7468 17.9419 32.8562 17.9255 32.9667C17.9222 32.9902 17.9184 33.0132 17.9151 33.0367C17.8992 33.1455 17.885 33.2543 17.8719 33.3637C17.8697 33.3818 17.868 33.3998 17.8659 33.4178C17.8544 33.5218 17.8434 33.6257 17.8347 33.7301C17.8336 33.7443 17.832 33.7591 17.8309 33.7733C17.8216 33.8849 17.8139 33.9964 17.8073 34.1085C17.8062 34.1321 17.8046 34.155 17.8035 34.1785C17.7975 34.2912 17.7931 34.4039 17.7898 34.5171C17.7893 34.5302 17.7893 34.5428 17.7893 34.5559C17.7871 34.6631 17.786 34.7708 17.786 34.8791C17.786 34.8971 17.786 34.9152 17.786 34.9332C17.7866 35.0464 17.7888 35.1596 17.7926 35.2734C17.7931 35.2838 17.7926 35.2936 17.7931 35.304C17.7811 35.3035 17.7685 35.3035 17.7565 35.3035C17.64 35.2996 17.5235 35.2975 17.4076 35.2964C17.3906 35.2964 17.3731 35.2964 17.3562 35.2964C17.2512 35.2964 17.1462 35.2969 17.0412 35.2991C17.0187 35.2996 16.9963 35.2996 16.9739 35.3002C16.8629 35.3029 16.7519 35.3073 16.6409 35.3128C16.6119 35.3144 16.5829 35.3155 16.5545 35.3171C16.4434 35.3232 16.333 35.3303 16.223 35.3396C16.2039 35.3412 16.1842 35.3428 16.1651 35.3445C16.0655 35.3527 15.9666 35.3625 15.8676 35.3729C15.8424 35.3757 15.8173 35.3778 15.7921 35.3811C15.6844 35.3932 15.5766 35.4068 15.4695 35.4221C15.441 35.426 15.4126 35.4303 15.3841 35.4342C15.2753 35.45 15.1665 35.4664 15.0587 35.485C15.0429 35.4878 15.027 35.4911 15.0106 35.4938C14.9111 35.5113 14.8116 35.5299 14.7126 35.5496C14.6885 35.5545 14.6645 35.5589 14.6404 35.5638C14.5343 35.5857 14.4282 35.6086 14.3232 35.6332C14.2975 35.6393 14.2718 35.6453 14.2461 35.6513C14.1384 35.677 14.0306 35.7038 13.9234 35.7322C13.913 35.735 13.9027 35.7382 13.8923 35.741C13.7905 35.7683 13.6899 35.7973 13.5893 35.8274C13.5674 35.8339 13.5455 35.8405 13.5237 35.8471C13.4192 35.8788 13.3159 35.9116 13.2125 35.946C13.1895 35.9537 13.1671 35.9614 13.1447 35.969C13.0386 36.0051 12.9325 36.0423 12.8275 36.0811C12.8226 36.0828 12.8177 36.085 12.8127 36.0866C12.7099 36.1249 12.6082 36.1648 12.507 36.2053C12.4868 36.2135 12.4666 36.2217 12.4463 36.2299C12.3452 36.2714 12.2445 36.3141 12.1445 36.3584C12.1242 36.3671 12.1045 36.3764 12.0843 36.3852C11.9804 36.4317 11.8776 36.4793 11.7753 36.5285C11.3734 36.7226 11.13 37.1415 11.1601 37.5867C11.2984 39.6347 12.0148 41.6866 13.2322 43.5208C13.3071 43.634 13.3842 43.7461 13.463 43.8571C13.4892 43.8943 13.5171 43.931 13.5439 43.9682C13.597 44.0414 13.65 44.1147 13.7047 44.1875C13.7375 44.2312 13.7714 44.2739 13.8048 44.3171C13.8551 44.3821 13.9048 44.4467 13.9562 44.5107C13.9929 44.556 14.0306 44.6014 14.0678 44.6463C14.1176 44.707 14.1673 44.7677 14.2182 44.8273C14.2576 44.8732 14.2975 44.9192 14.3374 44.9651C14.3877 45.0231 14.4386 45.0805 14.49 45.1379C14.5316 45.1839 14.5737 45.2293 14.6158 45.2752C14.6672 45.331 14.7191 45.3868 14.7716 45.4414C14.8148 45.4868 14.8586 45.5317 14.9023 45.5765C14.9554 45.6307 15.009 45.6842 15.0626 45.7378C15.1074 45.7821 15.1528 45.8264 15.1982 45.8702C15.2529 45.9227 15.3081 45.9752 15.3634 46.0271C15.4093 46.0703 15.4558 46.113 15.5023 46.1557C15.5586 46.2071 15.616 46.2579 15.6734 46.3088C15.7205 46.3503 15.7675 46.3919 15.8151 46.4329C15.8741 46.4838 15.9338 46.5336 15.9934 46.5833C16.0409 46.6227 16.088 46.6626 16.1361 46.7014C16.1979 46.7518 16.2608 46.801 16.3237 46.8507C16.3707 46.8879 16.4177 46.9257 16.4659 46.9623C16.5326 47.0132 16.5998 47.0629 16.6671 47.1132C16.7125 47.1466 16.7573 47.181 16.8033 47.2139C16.8793 47.2686 16.9559 47.3221 17.033 47.3757C17.0718 47.4025 17.1095 47.4299 17.1484 47.4567C17.2648 47.536 17.3819 47.6142 17.5005 47.6902C17.5077 47.6951 17.5153 47.6995 17.5224 47.7039C17.6296 47.7722 17.7379 47.84 17.8467 47.9062H10.7188ZM41.9229 46.2382C39.7518 47.4627 37.3138 48.0189 35.0071 47.8821C35.0213 47.8761 35.035 47.869 35.0487 47.863C35.093 47.8428 35.1373 47.8225 35.1816 47.8018C35.2067 47.7903 35.2319 47.7782 35.257 47.7668C35.3046 47.7443 35.3516 47.7214 35.3987 47.6984C35.4195 47.688 35.4408 47.6782 35.4616 47.6678C35.5288 47.6344 35.5961 47.6005 35.6634 47.5661C35.6716 47.5617 35.6798 47.5573 35.688 47.5535C35.747 47.5228 35.8055 47.4922 35.8646 47.4605C35.8876 47.4479 35.9105 47.4353 35.9341 47.4228C35.9778 47.3987 36.0216 47.3746 36.0653 47.3506C36.091 47.3364 36.1167 47.3216 36.1424 47.3074C36.184 47.2839 36.2255 47.2603 36.2666 47.2363C36.2923 47.2215 36.318 47.2068 36.3431 47.1914C36.3863 47.1663 36.4295 47.14 36.4722 47.1143C36.4952 47.1007 36.5176 47.087 36.5405 47.0733C36.5996 47.0372 36.6592 47 36.7177 46.9628C36.7232 46.9596 36.7287 46.9563 36.7341 46.953C36.9157 46.8376 37.0945 46.7168 37.2712 46.5926C38.9512 45.413 40.3916 43.8511 41.4597 42.0393C41.4684 42.0246 41.4766 42.0093 41.4854 41.9945C41.5324 41.9135 41.5795 41.8326 41.6248 41.7517C41.6456 41.7145 41.6659 41.6773 41.6861 41.6401C41.7195 41.5789 41.7534 41.5182 41.7856 41.4564C41.807 41.4164 41.8277 41.376 41.8485 41.3355C41.8797 41.2759 41.9103 41.2168 41.9404 41.1567C41.9606 41.1168 41.9803 41.0763 42 41.0364C42.0301 40.9746 42.0602 40.9133 42.0897 40.8515C42.1077 40.8132 42.1258 40.7755 42.1433 40.7372C42.1745 40.6705 42.2045 40.6032 42.2346 40.5365C42.2494 40.5032 42.2647 40.4703 42.2789 40.437C42.3145 40.3566 42.3484 40.2757 42.3823 40.1942C42.3905 40.1739 42.3992 40.1543 42.4074 40.134C42.4927 39.9257 42.5731 39.7162 42.6486 39.5057C42.6552 39.4865 42.6617 39.4674 42.6683 39.4482C42.6984 39.3635 42.7273 39.2782 42.7558 39.1928C42.7651 39.165 42.7738 39.1371 42.7826 39.1097C42.8077 39.0326 42.8323 38.955 42.8559 38.8773C42.8652 38.8467 42.8745 38.8155 42.8837 38.7843C42.9062 38.7083 42.928 38.6328 42.9494 38.5568C42.9581 38.5257 42.9669 38.4945 42.9756 38.4628C42.997 38.3851 43.0172 38.3075 43.0369 38.2298C43.0445 38.2003 43.0522 38.1713 43.0593 38.1418C43.0806 38.0553 43.1009 37.9689 43.1205 37.8825C43.1255 37.8618 43.1304 37.841 43.1348 37.8202C43.1577 37.7157 43.1802 37.6113 43.2009 37.5063C44.8312 37.4062 46.4045 37.6403 47.8242 38.1948C47.3353 41.3984 45.1298 44.4297 41.9229 46.2382ZM43.4634 34.8069C43.4634 34.7725 43.4618 34.738 43.4613 34.703C43.4607 34.6478 43.4596 34.592 43.458 34.5368C43.4563 34.4651 43.4536 34.3935 43.4503 34.3218C43.4481 34.2671 43.4459 34.213 43.4427 34.1589C43.4388 34.0856 43.4334 34.0128 43.4284 33.9396C43.4246 33.8876 43.4213 33.8351 43.417 33.7832C43.4104 33.7055 43.4027 33.6284 43.3945 33.5518C43.3896 33.5048 43.3852 33.4578 43.3803 33.4107C43.3699 33.3183 43.3573 33.2259 43.3448 33.134C43.3404 33.1028 43.3371 33.0717 43.3327 33.041C43.3152 32.9185 43.2955 32.7966 43.2742 32.6757C43.2682 32.6418 43.2616 32.6085 43.2551 32.5751C43.2387 32.4871 43.2223 32.3996 43.2048 32.3121C43.1955 32.2661 43.1851 32.2207 43.1747 32.1753C43.1583 32.1004 43.1419 32.026 43.1244 31.9517C43.1129 31.9025 43.1003 31.8532 43.0877 31.8046C43.0702 31.7346 43.0522 31.6646 43.0336 31.5951C43.0199 31.5448 43.0057 31.495 42.9915 31.4447C42.9723 31.3769 42.9527 31.3091 42.9319 31.2418C42.9166 31.1915 42.9012 31.1418 42.8848 31.0914C42.8635 31.0247 42.8416 30.958 42.8192 30.8913C42.8028 30.8421 42.7859 30.7928 42.7684 30.7442C42.7448 30.6769 42.7202 30.6107 42.6951 30.544C42.6776 30.4964 42.6601 30.4494 42.6415 30.4024C42.6147 30.334 42.5868 30.2657 42.5589 30.1978C42.5409 30.1535 42.5234 30.1098 42.5042 30.066C42.4725 29.9917 42.4397 29.9178 42.4063 29.8446C42.3899 29.8085 42.3741 29.7718 42.3577 29.7357C42.3068 29.6264 42.2548 29.5181 42.2007 29.4109C42.1887 29.3868 42.1755 29.3639 42.1624 29.3414C42.1575 29.3338 42.1526 29.3261 42.1477 29.3185C42.1384 29.3043 42.1296 29.2895 42.1198 29.2758C42.1132 29.2665 42.1061 29.2572 42.099 29.2485C42.0902 29.237 42.082 29.2255 42.0727 29.214C42.0645 29.2042 42.0558 29.1943 42.0476 29.185C42.0394 29.1757 42.0306 29.1653 42.0219 29.156C42.0126 29.1457 42.0027 29.1364 41.9929 29.1265C41.9847 29.1183 41.9765 29.1101 41.9677 29.1025C41.9568 29.0926 41.9459 29.0828 41.9349 29.0735C41.9267 29.0664 41.9185 29.0598 41.9103 29.0527C41.8983 29.0428 41.8862 29.0335 41.8737 29.0248C41.866 29.0188 41.8578 29.0133 41.8496 29.0073C41.8365 28.998 41.8234 28.9893 41.8097 28.981C41.802 28.9761 41.7944 28.9712 41.7862 28.9663C41.772 28.9575 41.7577 28.9499 41.743 28.9417C41.7353 28.9373 41.7277 28.9335 41.72 28.9296C41.7047 28.922 41.6899 28.9149 41.6741 28.9078C41.6664 28.9045 41.6587 28.9012 41.6511 28.8979C41.6352 28.8914 41.6194 28.8848 41.603 28.8788C41.5953 28.876 41.5877 28.8733 41.58 28.8706C41.5636 28.8651 41.5472 28.8596 41.5308 28.8547C41.5231 28.8525 41.5149 28.8503 41.5073 28.8482C41.4903 28.8438 41.4739 28.8394 41.457 28.8356C41.4487 28.8339 41.4405 28.8323 41.4318 28.8307C41.4148 28.8274 41.3984 28.8241 41.3815 28.8219C41.3722 28.8208 41.3634 28.8197 41.3541 28.8186C41.3377 28.8164 41.3213 28.8148 41.3049 28.8137C41.294 28.8132 41.2836 28.8126 41.2727 28.8121C41.2579 28.8115 41.2426 28.8104 41.2278 28.8104C41.2262 28.8104 41.2251 28.8104 41.2234 28.8104C41.1999 28.8104 41.1764 28.811 41.1529 28.8126C41.0391 28.8197 40.9248 28.8296 40.8111 28.84C40.7898 28.8421 40.7684 28.8438 40.7477 28.846C40.6377 28.8569 40.5284 28.8689 40.419 28.8826C40.3982 28.8853 40.378 28.8881 40.3572 28.8908C40.2451 28.9056 40.133 28.9214 40.0209 28.9395C40.0192 28.9395 40.0176 28.94 40.0159 28.94C39.9027 28.9581 39.7901 28.9783 39.6769 28.9996C39.6561 29.0035 39.6359 29.0073 39.6151 29.0111C39.5057 29.0325 39.3969 29.0554 39.288 29.0795C39.2689 29.0839 39.2503 29.0882 39.2312 29.0926C39.1202 29.1178 39.0097 29.1446 38.8992 29.173C38.897 29.1735 38.8943 29.1741 38.8921 29.1746C38.78 29.2036 38.6684 29.2342 38.5574 29.2665C38.5377 29.272 38.518 29.278 38.4984 29.2835C38.3901 29.3152 38.2823 29.3485 38.1746 29.383C38.1571 29.3885 38.1396 29.3945 38.1216 29.4005C38.0133 29.436 37.9055 29.4727 37.7978 29.511C37.794 29.5126 37.7902 29.5137 37.7858 29.5153C37.6764 29.5547 37.567 29.5957 37.4588 29.6378C37.4391 29.6455 37.4199 29.6532 37.4002 29.6608C37.2941 29.7024 37.1886 29.7456 37.0836 29.7904C37.0666 29.7975 37.0497 29.8052 37.0333 29.8123C36.9294 29.8571 36.8255 29.9031 36.7221 29.9507C36.7161 29.9534 36.7101 29.9561 36.7041 29.9589C36.598 30.0081 36.493 30.0589 36.388 30.1109C36.3683 30.1207 36.348 30.1306 36.3284 30.1404C36.2261 30.1918 36.1238 30.2443 36.0227 30.2985C36.0057 30.3078 35.9888 30.3171 35.9718 30.3258C35.8739 30.3789 35.776 30.4325 35.6792 30.4882C35.6699 30.4937 35.6606 30.4986 35.6513 30.5041C35.5507 30.5621 35.4501 30.6217 35.3505 30.6824C35.3391 30.6895 35.3276 30.696 35.3161 30.7026C35.3106 30.6922 35.3041 30.6818 35.2986 30.6714C35.2428 30.5697 35.1865 30.4691 35.1285 30.369C35.122 30.3575 35.1148 30.3466 35.1083 30.3351C35.0525 30.2405 34.9962 30.1464 34.9382 30.0535C34.9295 30.0392 34.9207 30.0245 34.912 30.0103C34.8518 29.9135 34.79 29.8178 34.7271 29.7232C34.7145 29.704 34.702 29.6849 34.6894 29.6663C34.6254 29.5711 34.5609 29.4765 34.4947 29.383C34.4881 29.3743 34.4821 29.3655 34.4755 29.3568C34.4121 29.2676 34.3476 29.1796 34.282 29.0921C34.2716 29.0778 34.2612 29.0636 34.2502 29.05C34.1824 28.9603 34.113 28.8717 34.043 28.7842C34.0293 28.7667 34.0151 28.7497 34.0014 28.7328C33.9298 28.6442 33.857 28.5561 33.7832 28.4697C33.7777 28.4632 33.7723 28.4571 33.7668 28.4506C33.6957 28.3675 33.623 28.2854 33.5497 28.2045C33.5371 28.1908 33.5251 28.1766 33.5125 28.1629C33.4376 28.0809 33.361 28 33.2839 27.9196C33.2691 27.9043 33.2538 27.8884 33.2385 27.8731C33.1592 27.7916 33.0794 27.7112 32.9979 27.6325C32.9935 27.6286 32.9897 27.6248 32.9853 27.6204C32.906 27.5439 32.8256 27.4684 32.7447 27.394C32.7305 27.3809 32.7162 27.3678 32.702 27.3552C32.62 27.2808 32.5374 27.2081 32.4538 27.1359C32.4379 27.1222 32.4215 27.1085 32.4056 27.0949C32.3192 27.021 32.2317 26.9489 32.1431 26.8778C32.1409 26.8761 32.1393 26.8745 32.1371 26.8734C32.0496 26.8034 31.961 26.735 31.8713 26.6672C31.8555 26.6552 31.8396 26.6432 31.8237 26.6311C31.7357 26.565 31.646 26.5004 31.5563 26.437C31.5394 26.4255 31.523 26.4135 31.506 26.402C31.4125 26.3369 31.3179 26.2724 31.2227 26.21C31.132 26.1504 31.0341 26.1061 30.9334 26.0766C30.8328 26.0471 30.7289 26.0312 30.625 26.0312C30.4429 26.0312 30.2602 26.0766 30.0962 26.1674C30.0727 26.1805 30.0497 26.1942 30.0267 26.2089C29.9316 26.2707 29.838 26.3347 29.7451 26.3993C29.727 26.4118 29.7095 26.4239 29.6915 26.4364C29.6023 26.4993 29.5138 26.5633 29.4263 26.6284C29.4093 26.641 29.3918 26.6541 29.3748 26.6672C29.2873 26.7334 29.2004 26.8001 29.1151 26.8685C29.1118 26.8712 29.108 26.8739 29.1047 26.8767C29.0172 26.9467 28.9308 27.0183 28.8455 27.091C28.828 27.1058 28.8105 27.1206 28.793 27.1353C28.7104 27.2064 28.6284 27.2781 28.548 27.3514C28.5321 27.3656 28.5168 27.3803 28.5009 27.3946C28.4216 27.4668 28.3434 27.5406 28.2663 27.615C28.2609 27.6204 28.2548 27.6259 28.2494 27.6314C28.169 27.709 28.0902 27.7889 28.012 27.8687C27.9956 27.8857 27.9792 27.9026 27.9628 27.9196C27.8868 27.9983 27.8119 28.0782 27.7375 28.1591C27.7233 28.1744 27.7096 28.1897 27.6959 28.205C27.6248 28.2838 27.5543 28.3636 27.4848 28.444C27.4777 28.4522 27.4706 28.4599 27.4641 28.4681C27.3913 28.5534 27.3197 28.6403 27.2486 28.7278C27.2338 28.7464 27.2185 28.765 27.2038 28.7836C27.1343 28.87 27.0659 28.9575 26.9992 29.0461C26.9872 29.062 26.9757 29.0778 26.9637 29.0932C26.8997 29.1785 26.8363 29.2649 26.7745 29.3518C26.7673 29.3622 26.7597 29.3721 26.7526 29.3819C26.687 29.4743 26.623 29.5678 26.5601 29.6625C26.5464 29.6827 26.5333 29.7024 26.5202 29.7226C26.4578 29.8167 26.3971 29.9113 26.337 30.007C26.3271 30.0223 26.3178 30.0382 26.308 30.054C26.2511 30.1459 26.1953 30.2383 26.1406 30.3318C26.1335 30.3439 26.1264 30.3559 26.1193 30.3679C26.0619 30.4669 26.0055 30.5675 25.9503 30.6687C25.9443 30.6796 25.9377 30.69 25.9323 30.701C25.9252 30.6966 25.9175 30.6922 25.9104 30.6878C25.8223 30.6343 25.7332 30.5818 25.6441 30.5303C25.6277 30.521 25.6118 30.5112 25.5959 30.5019C25.4893 30.4412 25.3821 30.3816 25.2744 30.3242C25.2476 30.31 25.2208 30.2963 25.194 30.2821C25.113 30.2394 25.0321 30.1968 24.9501 30.1557C24.9129 30.1371 24.8752 30.1191 24.8374 30.1005C24.7658 30.065 24.6936 30.03 24.6214 29.996C24.5804 29.9769 24.5399 29.9583 24.4989 29.9397C24.4289 29.9075 24.3589 29.8763 24.2884 29.8451C24.2468 29.8271 24.2052 29.809 24.1631 29.7915C24.092 29.7614 24.0209 29.7319 23.9493 29.7029C23.9083 29.6865 23.8678 29.6701 23.8268 29.6537C23.7519 29.6242 23.677 29.5957 23.602 29.5678C23.5643 29.5536 23.5271 29.5394 23.4894 29.5257C23.4057 29.4951 23.3215 29.4661 23.2373 29.4377C23.2138 29.4295 23.1902 29.4207 23.1662 29.4131C23.287 28.9936 23.462 28.5857 23.6852 28.2056C23.8066 27.9994 23.9487 27.7872 24.1073 27.575C25.2022 26.1127 26.7963 25.0392 28.5961 24.5519C33.2434 23.2919 38.1823 22.2392 42.8127 23.0562C44.888 23.4221 46.3679 24.1467 47.2101 25.2098C48.7988 27.2141 48.0971 30.4089 46.5013 32.3389C45.8013 33.1876 44.6819 34.0845 43.4634 34.8069Z" fill="#FEA116"/>
</svg>
