<svg width="35" height="35" viewBox="0 0 35 35" fill="none" xmlns="http://www.w3.org/2000/svg">
<g clip-path="url(#clip0_124_193)">
<path d="M33.7969 23.45H33.2008C33.0865 23.0703 32.9325 22.7037 32.7414 22.3563L33.1625 21.9352C33.2724 21.8237 33.334 21.6734 33.334 21.5168C33.334 21.3603 33.2724 21.21 33.1625 21.0985L31.9375 19.8571C31.8253 19.7485 31.6753 19.6878 31.5191 19.6878C31.363 19.6878 31.213 19.7485 31.1008 19.8571L30.6797 20.2782C30.3344 20.0827 29.9673 19.9285 29.5859 19.8188V19.2282C29.586 19.1497 29.5703 19.072 29.54 18.9996C29.5096 18.9272 29.4651 18.8616 29.4091 18.8066C29.3531 18.7516 29.2867 18.7084 29.2138 18.6793C29.1408 18.6503 29.0629 18.6361 28.9844 18.6375H27.2508C27.0941 18.6375 26.9439 18.6998 26.8332 18.8105C26.7224 18.9213 26.6602 19.0715 26.6602 19.2282V19.8243C26.2788 19.934 25.9117 20.0881 25.5664 20.2836L25.1563 19.8625C25.0447 19.7527 24.8945 19.6911 24.7379 19.6911C24.5813 19.6911 24.4311 19.7527 24.3195 19.8625L23.0945 21.0875C23.0396 21.1419 22.9961 21.2067 22.9663 21.278C22.9366 21.3494 22.9213 21.4259 22.9213 21.5032C22.9213 21.5805 22.9366 21.657 22.9663 21.7283C22.9961 21.7996 23.0396 21.8644 23.0945 21.9188L23.5156 22.3399C23.4184 22.5173 23.3308 22.6999 23.2531 22.8868L21.257 22.1594L20.4641 21.011V18.7032L20.5516 18.6157C21.0585 18.0107 21.366 17.2639 21.432 16.4774L21.4703 16.0946C22.132 15.8649 22.4602 14.793 22.6133 13.9071C22.7008 13.4313 22.9141 11.9821 22.4656 11.2383C22.4693 10.9616 22.5405 10.6899 22.6729 10.4469C22.8054 10.2039 22.9952 9.99684 23.2258 9.84379C23.3018 9.79374 23.3641 9.72552 23.4071 9.6453C23.45 9.56509 23.4723 9.47542 23.4719 9.38442C23.4063 4.94926 22.3781 2.5266 20.3164 1.9852C16.4883 -1.9523 8.83204 1.1102 8.50938 1.24145C8.4301 1.27861 8.36091 1.33427 8.30761 1.40374C8.25432 1.47322 8.21849 1.55447 8.20313 1.64067C8.18921 1.72948 8.19739 1.82035 8.22696 1.90525C8.25653 1.99014 8.30657 2.06644 8.37266 2.12738L8.61875 2.34067C6.97813 3.65863 6.125 5.97192 6.13047 9.24223C6.13108 9.3857 6.18803 9.52318 6.28907 9.62504C6.72114 10.1267 6.98844 10.7491 7.05469 11.4079C6.66094 12.1024 6.83594 13.3493 6.94532 13.9071C7.07657 14.6125 7.41563 15.8266 8.13204 16.0946H8.15938L8.19766 16.4664C8.25912 17.2478 8.56096 17.9909 9.06172 18.5938C9.15469 18.7032 9.2586 18.8125 9.36797 18.9219V20.7321C9.32197 20.7717 9.27986 20.8157 9.24219 20.8633L8.35079 22.1485L3.39063 23.9696H3.31407C2.65833 24.2388 2.0943 24.6917 1.68976 25.2738C1.28521 25.8558 1.05736 26.5424 1.0336 27.2508L0.612504 34.3602C0.609181 34.4332 0.620536 34.5062 0.645897 34.5748C0.671259 34.6433 0.710112 34.7061 0.76016 34.7594C0.86113 34.8625 0.998724 34.9214 1.14297 34.9235L14.7656 35H28.1148C28.2599 35 28.399 34.9424 28.5015 34.8399C28.6041 34.7373 28.6617 34.5982 28.6617 34.4532V31.1719H28.9844C29.141 31.1719 29.2913 31.1097 29.402 30.9989C29.5128 30.8882 29.575 30.7379 29.575 30.5813V29.9907C29.9563 29.881 30.3235 29.7268 30.6688 29.5313L31.0898 29.9579C31.202 30.0664 31.3521 30.1272 31.5082 30.1272C31.6643 30.1272 31.8144 30.0664 31.9266 29.9579L33.1461 28.7383C33.2022 28.6836 33.2467 28.6181 33.2767 28.5457C33.3068 28.4733 33.3219 28.3956 33.3211 28.3172C33.3161 28.1629 33.256 28.0154 33.1516 27.9016L32.7305 27.4805C32.9206 27.1326 33.0746 26.7661 33.1898 26.3868H33.7969C33.9531 26.3853 34.1025 26.3226 34.2129 26.2122C34.3234 26.1017 34.3861 25.9523 34.3875 25.7961V24.0625C34.3897 23.9833 34.3761 23.9045 34.3474 23.8307C34.3188 23.7568 34.2757 23.6894 34.2207 23.6323C34.1657 23.5753 34.0999 23.5298 34.0272 23.4985C33.9544 23.4672 33.8761 23.4507 33.7969 23.45ZM10.4289 19.8516C11.0217 20.2887 11.647 20.6799 12.2992 21.0219C12.5607 21.1596 12.8514 21.2327 13.1469 21.2352H16.4281C16.722 21.2333 17.011 21.1601 17.2703 21.0219C18.0089 20.638 18.7133 20.1916 19.3758 19.6875V20.7266L19.3266 20.7649L19.2719 20.8196L19.0477 21.1039L14.7984 25.3969L10.593 21.0657L10.4289 20.918V19.8516ZM18.1453 28.0547L15.5914 26.086L19.7586 21.875L20.3492 22.7336L18.982 26.0149L18.1453 28.0547ZM9.73438 2.87113C9.80514 2.82763 9.86507 2.76858 9.9096 2.69846C9.95414 2.62834 9.98212 2.54899 9.99141 2.46645C9.9977 2.38287 9.9847 2.29896 9.95341 2.22121C9.92212 2.14345 9.87337 2.07393 9.81094 2.01801L9.73438 1.94692C11.7688 1.29613 17.0242 4.10303e-05 19.6492 2.83832C19.726 2.91952 19.8249 2.97654 19.9336 3.00238C21.4813 3.31957 22.3125 5.38676 22.4055 9.13832C21.9205 9.53343 21.5911 10.0876 21.4758 10.7024C21.4758 10.5711 21.4758 10.4454 21.443 10.3196C21.4102 10.1938 21.443 10.0735 21.4156 9.95863C21.3883 9.84379 21.3719 9.67973 21.35 9.54301C21.3281 9.40629 21.35 9.31879 21.3008 9.20942C21.2516 9.10004 21.2352 8.95785 21.2023 8.83207C21.1833 8.73028 21.1577 8.62981 21.1258 8.53129C21.0875 8.40551 21.0438 8.29613 21 8.17582C20.9563 8.05551 20.9344 7.99535 20.8961 7.90785C20.8578 7.82035 20.7867 7.6891 20.732 7.5852C20.6773 7.48129 20.6555 7.4266 20.6117 7.35004C20.568 7.27348 20.4695 7.14223 20.3984 7.03832C20.3273 6.93442 20.3164 6.90707 20.2672 6.84692C20.1782 6.73786 20.0833 6.6338 19.9828 6.5352C19.9445 6.49145 19.9063 6.44223 19.8625 6.39848C19.7165 6.25697 19.5613 6.12542 19.3977 6.00473C19.3133 5.9443 19.2135 5.90913 19.1098 5.90332C19.0062 5.89751 18.9031 5.9213 18.8125 5.97192C18.8125 5.97192 16.9914 7.00551 13.4094 6.56254C12.8442 6.48861 12.2712 6.49782 11.7086 6.58989C10.1938 6.84692 8.4 7.80395 8.17579 10.8391H8.01172C7.88491 10.1781 7.59758 9.55833 7.175 9.03442C7.20782 5.93363 8.06641 3.85551 9.73438 2.87113ZM9.14922 15.4493C9.13543 15.3553 9.09742 15.2666 9.03893 15.1918C8.98044 15.117 8.90348 15.0587 8.81563 15.0227C8.75324 14.9969 8.68628 14.9838 8.61875 14.9844C8.54997 14.9842 8.48161 14.9953 8.41641 15.0172C8.15043 14.5414 7.98304 14.0169 7.92422 13.475C7.80514 12.9808 7.80514 12.4654 7.92422 11.9711L7.97344 11.9274C8.15656 11.9074 8.34177 11.9203 8.52032 11.9657C8.598 11.9816 8.67823 11.9804 8.75542 11.9623C8.83261 11.9441 8.90493 11.9093 8.96736 11.8604C9.02979 11.8115 9.08083 11.7496 9.11696 11.679C9.15308 11.6085 9.17342 11.5308 9.17657 11.4516C9.17657 9.16567 10.0406 7.95707 11.8453 7.62348C12.3092 7.5516 12.7814 7.5516 13.2453 7.62348C16.3133 7.98988 18.2328 7.36098 18.9711 7.03832C19.9445 7.90785 20.3875 9.22582 20.3875 11.2875C20.3862 11.4202 20.4332 11.5489 20.5197 11.6495C20.6063 11.7501 20.7264 11.8158 20.8578 11.8344L21.5633 11.9164C21.7092 12.9729 21.5557 14.0491 21.1203 15.0227C21.0438 14.996 20.9623 14.9867 20.8817 14.9954C20.8011 15.0041 20.7234 15.0306 20.6543 15.073C20.5852 15.1154 20.5264 15.1726 20.4822 15.2405C20.4379 15.3084 20.4093 15.3853 20.3984 15.4657L20.3109 16.3844C20.2615 16.9544 20.0403 17.4959 19.6766 17.9375C19.484 18.1583 19.2756 18.3648 19.0531 18.5555C18.3443 19.1548 17.5702 19.6721 16.7453 20.0977C16.6392 20.1541 16.521 20.1841 16.4008 20.1852H13.125C13.0031 20.1835 12.8833 20.1536 12.775 20.0977C11.9864 19.6869 11.2424 19.1958 10.5547 18.6321C10.3009 18.4183 10.065 18.1842 9.84922 17.9321C9.4813 17.4951 9.25946 16.9539 9.21485 16.3844L9.14922 15.4493ZM9.84375 21.8422L13.9781 26.0969L13.8578 26.1899L11.4352 28.0493L10.057 24.768L9.22579 22.761L9.84375 21.8422ZM2.09453 27.3438C2.10351 26.8448 2.25364 26.3586 2.52754 25.9415C2.80144 25.5243 3.18791 25.1933 3.64219 24.9868H3.71875L8.3125 23.3133L9.14375 25.3204L10.5328 28.6563C10.6106 28.8577 10.7581 29.0246 10.9484 29.1266L11.0852 29.1813H11.1398H11.1891C11.2436 29.1866 11.2986 29.1866 11.3531 29.1813H11.4078C11.4761 29.1761 11.5438 29.1652 11.6102 29.1485H11.6813C11.761 29.1162 11.8364 29.0739 11.9055 29.0227L12.4523 28.6071L14.2516 27.2235V33.9063H6.5625V31.9375C6.53287 31.8193 6.46457 31.7143 6.36846 31.6393C6.27235 31.5643 6.15394 31.5236 6.03203 31.5236C5.91013 31.5236 5.79172 31.5643 5.69561 31.6393C5.5995 31.7143 5.5312 31.8193 5.50157 31.9375V33.9063H1.70625L2.09453 27.3438ZM27.5844 33.9063H23.7563V31.9594C23.7248 31.8436 23.656 31.7413 23.5607 31.6684C23.4653 31.5955 23.3486 31.556 23.2285 31.556C23.1085 31.556 22.9917 31.5955 22.8964 31.6684C22.801 31.7413 22.7323 31.8436 22.7008 31.9594V33.9336H15.3125V27.2235L17.6039 28.9844L17.675 29.0391C17.7429 29.0909 17.8186 29.1315 17.8992 29.1594H17.9594C18.029 29.1783 18.1006 29.1893 18.1727 29.1922H18.2164C18.2793 29.1916 18.3419 29.1824 18.4023 29.1649H18.4352C18.4937 29.1487 18.5505 29.1268 18.6047 29.0993C18.795 28.9973 18.9425 28.8304 19.0203 28.6289L19.9883 26.3047L21.2406 23.286L22.0281 23.5758C21.9595 23.6273 21.9039 23.6942 21.8659 23.7712C21.8279 23.8482 21.8085 23.933 21.8094 24.0188V25.7524C21.8071 25.8334 21.8214 25.9141 21.8514 25.9894C21.8814 26.0648 21.9264 26.1332 21.9837 26.1905C22.0411 26.2479 22.1095 26.2929 22.1848 26.3229C22.2602 26.3529 22.3408 26.3671 22.4219 26.3649H23.018C23.1333 26.7442 23.2872 27.1107 23.4773 27.4586L23.0563 27.8797C22.9464 27.9913 22.8848 28.1415 22.8848 28.2981C22.8848 28.4546 22.9464 28.6049 23.0563 28.7164L24.2813 29.9414C24.3935 30.05 24.5435 30.1107 24.6996 30.1107C24.8558 30.1107 25.0058 30.05 25.118 29.9414L25.5391 29.5204C25.8844 29.7158 26.2515 29.87 26.6328 29.9797V30.5758C26.632 30.6562 26.6476 30.7359 26.6786 30.81C26.7097 30.8842 26.7555 30.9512 26.8134 31.007C26.8712 31.0628 26.9399 31.1062 27.0151 31.1346C27.0903 31.1629 27.1705 31.1756 27.2508 31.1719H27.5844V33.9063ZM33.3266 25.2711H32.8125C32.6772 25.271 32.546 25.3178 32.4413 25.4036C32.3366 25.4894 32.2648 25.6087 32.2383 25.7414C32.1301 26.2579 31.926 26.7494 31.6367 27.1907C31.5539 27.3071 31.5166 27.4497 31.5317 27.5918C31.5468 27.7338 31.6133 27.8654 31.7188 27.9618L32.0688 28.3118L31.5219 28.8586L31.1719 28.5196C31.0744 28.4256 30.9485 28.3666 30.814 28.3518C30.6794 28.3369 30.5437 28.3671 30.4281 28.4375C29.989 28.7282 29.4993 28.934 28.9844 29.0446C28.8517 29.0732 28.7328 29.1463 28.6472 29.2517C28.5617 29.3571 28.5147 29.4885 28.5141 29.6243V30.1164H27.7211V29.6243C27.7204 29.4885 27.6734 29.3571 27.5879 29.2517C27.5024 29.1463 27.3835 29.0732 27.2508 29.0446C26.734 28.9347 26.2424 28.7288 25.8016 28.4375C25.6865 28.3664 25.5512 28.3353 25.4167 28.3492C25.2821 28.363 25.1559 28.421 25.0578 28.5141L24.7078 28.8641L24.1609 28.3172L24.5109 27.9672C24.6071 27.872 24.6673 27.7464 24.6813 27.6118C24.6952 27.4772 24.6621 27.3419 24.5875 27.2289C24.2972 26.7862 24.0931 26.2927 23.9859 25.7743C23.9583 25.6426 23.8861 25.5244 23.7815 25.4398C23.6769 25.3551 23.5463 25.3091 23.4117 25.3094H22.9141V24.511H23.4117C23.5422 24.5097 23.6684 24.4649 23.7705 24.3836C23.8726 24.3024 23.9445 24.1894 23.975 24.0625C24.0832 23.5461 24.2872 23.0546 24.5766 22.6133C24.6511 22.5004 24.6843 22.3651 24.6703 22.2305C24.6564 22.0959 24.5962 21.9703 24.5 21.875L24.15 21.525L24.6969 20.9782L25.0469 21.3282C25.1442 21.423 25.271 21.4818 25.4062 21.4947C25.5415 21.5076 25.6771 21.474 25.7906 21.3993C26.2324 21.1037 26.7259 20.894 27.2453 20.7813C27.379 20.7537 27.4992 20.6812 27.5858 20.5756C27.6724 20.4701 27.7201 20.3381 27.7211 20.2016V19.6875H28.5086V20.1797C28.5044 20.32 28.5499 20.4572 28.6369 20.5672C28.7239 20.6772 28.847 20.753 28.9844 20.7813C29.5005 20.8876 29.9921 21.0898 30.4336 21.3774C30.5478 21.4493 30.683 21.4803 30.8171 21.4654C30.9512 21.4505 31.0763 21.3906 31.1719 21.2954L31.5219 20.9454L32.0688 21.4922L31.7188 21.875C31.6226 21.9703 31.5624 22.0959 31.5484 22.2305C31.5345 22.3651 31.5676 22.5004 31.6422 22.6133C31.9417 23.0516 32.1534 23.5437 32.2656 24.0625C32.2943 24.1952 32.3673 24.3142 32.4727 24.3997C32.5781 24.4852 32.7096 24.5322 32.8453 24.5329H33.343L33.3266 25.2711Z" fill="#FEA116"/>
<path d="M28.1148 21.2679C27.3942 21.2669 26.6895 21.4796 26.0898 21.8791C25.4902 22.2787 25.0225 22.8471 24.746 23.5125C24.4695 24.178 24.3966 24.9105 24.5365 25.6173C24.6764 26.3242 25.0229 26.9737 25.532 27.4836C26.0412 27.9935 26.6901 28.341 27.3968 28.4819C28.1034 28.6229 28.8361 28.5511 29.5019 28.2756C30.1677 28.0001 30.7369 27.5333 31.1373 26.9342C31.5378 26.3351 31.7515 25.6307 31.7515 24.9101C31.7515 23.9451 31.3686 23.0195 30.6867 22.3367C30.0048 21.6538 29.0798 21.2694 28.1148 21.2679ZM28.1148 27.4859C27.6038 27.487 27.104 27.3364 26.6787 27.0532C26.2534 26.77 25.9217 26.3669 25.7256 25.895C25.5296 25.4231 25.478 24.9037 25.5774 24.4024C25.6769 23.9012 25.9228 23.4408 26.2841 23.0795C26.6455 22.7181 27.1059 22.4722 27.6071 22.3728C28.1083 22.2733 28.6278 22.3249 29.0997 22.521C29.5716 22.717 29.9746 23.0487 30.2579 23.474C30.5411 23.8993 30.6917 24.3991 30.6906 24.9101C30.6892 25.5928 30.4173 26.2472 29.9346 26.7299C29.4518 27.2126 28.7975 27.4845 28.1148 27.4859Z" fill="#FEA116"/>
</g>
<defs>
<clipPath id="clip0_124_193">
<rect width="35" height="35" fill="white"/>
</clipPath>
</defs>
</svg>
