<svg width="17" height="16" viewBox="0 0 17 16" fill="none" xmlns="http://www.w3.org/2000/svg">
<g clip-path="url(#clip0_158_354)">
<path d="M13.2713 14.9558C12.7666 15.3356 9.52814 12.9284 8.9079 12.9231C8.28766 12.9178 5.01276 15.2697 4.51394 14.8814C4.01511 14.4931 5.18782 10.505 5.00094 9.88208C4.81405 9.25914 1.67853 6.70512 1.87494 6.08541C2.07139 5.46571 6.03461 5.40815 6.53932 5.0284C7.04403 4.6487 8.38111 0.718393 9.00139 0.723638C9.62158 0.728929 10.8983 4.68145 11.3971 5.06972C11.8959 5.45796 15.8578 5.58293 16.0447 6.20587C16.2316 6.82881 13.0574 9.3292 12.8609 9.9489C12.6645 10.5686 13.776 14.5761 13.2713 14.9558Z" fill="#FEA116"/>
</g>
<defs>
<clipPath id="clip0_158_354">
<rect width="15.1467" height="16" fill="white" transform="translate(0.919922)"/>
</clipPath>
</defs>
</svg>
