<svg width="56" height="56" viewBox="0 0 56 56" fill="none" xmlns="http://www.w3.org/2000/svg">
<g clip-path="url(#clip0_49_160)">
<path d="M48.1192 56C46.0752 56 44.9773 55.237 44.0953 54.6245C43.3253 54.089 42.7175 53.6667 41.405 53.6667C40.0937 53.6667 39.4858 54.089 38.7158 54.6245C37.835 55.237 36.7383 56 34.6955 56C32.6538 56 31.5583 55.237 30.6775 54.6245C29.9087 54.089 29.3008 53.6667 27.9918 53.6667C26.6805 53.6667 26.0727 54.089 25.3038 54.6245C24.423 55.237 23.3263 56 21.2835 56C19.2407 56 18.1452 55.237 17.2643 54.6245C16.4955 54.089 15.8888 53.6667 14.5787 53.6667C13.2673 53.6667 12.6607 54.089 11.8918 54.6245C11.011 55.237 9.91433 56 7.87267 56C5.831 56 4.73433 55.237 3.8535 54.6245C3.08467 54.089 2.478 53.6667 1.16667 53.6667C0.522667 53.6667 0 53.144 0 52.5C0 51.856 0.522667 51.3333 1.16667 51.3333C3.2095 51.3333 4.305 52.0963 5.18583 52.7088C5.95467 53.2443 6.5625 53.6667 7.87267 53.6667C9.184 53.6667 9.79067 53.2443 10.5595 52.7088C11.4392 52.0963 12.5358 51.3333 14.5787 51.3333C16.6215 51.3333 17.717 52.0963 18.5978 52.7088C19.3655 53.2443 19.9733 53.6667 21.2835 53.6667C22.5937 53.6667 23.2015 53.2443 23.9703 52.7088C24.8523 52.0963 25.949 51.3333 27.9918 51.3333C30.0335 51.3333 31.129 52.0963 32.0098 52.7088C32.7787 53.2443 33.3853 53.6667 34.6955 53.6667C36.0068 53.6667 36.6147 53.2443 37.3847 52.7088C38.2643 52.0963 39.361 51.3333 41.405 51.3333C43.449 51.3333 44.5457 52.0963 45.4277 52.7088C46.1977 53.2443 46.8067 53.6667 48.1192 53.6667C49.4317 53.6667 50.0395 53.2443 50.8107 52.7088C51.6927 52.0963 52.7893 51.3333 54.8333 51.3333C55.4773 51.3333 56 51.856 56 52.5C56 53.144 55.4773 53.6667 54.8333 53.6667C53.5208 53.6667 52.913 54.089 52.1418 54.6245C51.261 55.237 50.1632 56 48.1192 56ZM48.1133 50.1667C46.074 50.1667 44.9797 49.4048 44.1 48.7923C43.3288 48.2568 42.721 47.8333 41.405 47.8333C40.089 47.8333 39.4812 48.2568 38.71 48.7923C37.8303 49.4048 36.7348 50.1667 34.6967 50.1667C32.6573 50.1667 31.563 49.4048 30.6833 48.7923C29.9122 48.2568 29.3043 47.8333 27.9883 47.8333C26.6817 47.8333 26.075 48.2557 25.3073 48.79C24.4253 49.4037 23.3275 50.1667 21.28 50.1667C20.6208 50.1667 20.0352 50.0908 19.4892 49.9345C18.5197 49.6673 17.8488 49.1995 17.2562 48.7877C16.4908 48.2545 15.8853 47.8333 14.5833 47.8333C13.265 47.8333 12.6548 48.2568 11.8837 48.7935C11.4975 49.0607 11.0612 49.3652 10.528 49.6137C9.744 49.9893 8.897 50.1667 7.875 50.1667C5.8275 50.1667 4.72967 49.4037 3.84767 48.79C3.08 48.2557 2.47333 47.8333 1.16667 47.8333C0.522667 47.8333 0 47.3107 0 46.6667C0 46.0227 0.522667 45.5 1.16667 45.5C3.206 45.5 4.30033 46.2618 5.18 46.8743C5.95117 47.4098 6.56017 47.8333 7.875 47.8333C8.54467 47.8333 9.0545 47.7318 9.52933 47.5043C9.89217 47.334 10.2118 47.1123 10.5513 46.8767C11.4345 46.263 12.5335 45.5 14.5833 45.5C16.618 45.5 17.7112 46.2607 18.5897 46.8732C19.0925 47.222 19.5253 47.5242 20.1203 47.6887C20.4645 47.7867 20.8402 47.8333 21.28 47.8333C22.5948 47.8333 23.2038 47.4098 23.975 46.8743C24.8547 46.2618 25.9502 45.5 27.9883 45.5C30.0358 45.5 31.1337 46.263 32.0157 46.8767C32.7833 47.411 33.39 47.8333 34.6967 47.8333C36.0033 47.8333 36.61 47.411 37.3777 46.8778C38.2597 46.2642 39.3575 45.5 41.405 45.5C43.4525 45.5 44.5503 46.263 45.4323 46.8767C46.2 47.411 46.8067 47.8333 48.1133 47.8333C49.4282 47.8333 50.0372 47.411 50.8083 46.8755C51.6903 46.2618 52.7882 45.5 54.8333 45.5C55.4773 45.5 56 46.0227 56 46.6667C56 47.3107 55.4773 47.8333 54.8333 47.8333C53.5185 47.8333 52.9095 48.2557 52.1383 48.7912C51.2575 49.4048 50.1585 50.1667 48.1133 50.1667ZM3.91883 42.77C3.70417 42.77 3.48717 42.7105 3.29233 42.5868C2.7405 42.2345 2.1665 42 1.16667 42C0.522667 42 0 41.4773 0 40.8333C0 40.1893 0.522667 39.6667 1.16667 39.6667C2.8385 39.6667 3.85117 40.1765 4.54767 40.6198C5.09017 40.9663 5.25 41.6885 4.9035 42.231C4.68067 42.5798 4.30383 42.77 3.91883 42.77ZM34.6967 44.3333C32.6573 44.3333 31.563 43.5715 30.6833 42.959C29.9122 42.4235 29.3043 42 27.9883 42C27.356 42.1027 26.7423 41.671 26.6385 41.034C26.5347 40.3982 26.9547 39.7962 27.5905 39.6935C27.7235 39.6713 27.8553 39.6667 27.9883 39.6667C30.0358 39.6667 31.1337 40.4297 32.0157 41.0433C32.7833 41.5777 33.39 42 34.6967 42C36.0033 42 36.61 41.5777 37.3777 41.0445C38.2597 40.4308 39.3575 39.6667 41.405 39.6667C42.4515 39.6667 43.3265 39.8568 44.1583 40.264C44.737 40.5475 44.9762 41.2463 44.6927 41.825C44.4092 42.4037 43.7127 42.644 43.1317 42.3593C42.7898 42.1925 42.2858 42 41.405 42C40.089 42 39.4812 42.4235 38.71 42.959C37.8303 43.5715 36.7348 44.3333 34.6967 44.3333ZM53.7122 42.105C53.1743 42.105 52.6902 41.7305 52.5723 41.1833C52.437 40.5533 52.8383 39.9327 53.4683 39.7973C53.8732 39.711 54.3317 39.6667 54.8333 39.6667C55.4773 39.6667 56 40.1893 56 40.8333C56 41.4773 55.4773 42 54.8333 42C54.4962 42 54.2022 42.0268 53.9583 42.0782C53.8755 42.0968 53.7927 42.105 53.7122 42.105ZM42 21C38.1395 21 35 17.8605 35 14C35 10.1395 38.1395 7 42 7C45.8605 7 49 10.1395 49 14C49 17.8605 45.8605 21 42 21ZM42 9.33333C39.4263 9.33333 37.3333 11.4263 37.3333 14C37.3333 16.5737 39.4263 18.6667 42 18.6667C44.5737 18.6667 46.6667 16.5737 46.6667 14C46.6667 11.4263 44.5737 9.33333 42 9.33333Z" fill="#FEA116"/>
<path d="M48.1134 44.3334C46.0834 44.3334 44.9867 43.5739 44.1047 42.9626C43.7792 42.7362 43.4712 42.5239 43.1375 42.3617C43.0197 42.3046 42.9124 42.2287 42.8202 42.1366L35.4784 34.7947L28.6032 41.6699C28.392 41.8811 28.1074 42.0036 27.8087 42.0106C26.621 42.042 26.04 42.4457 25.305 42.9579C24.423 43.5704 23.3264 44.3334 21.28 44.3334C19.2395 44.3334 18.144 43.5704 17.2644 42.9567C16.4979 42.4224 15.8912 42.0001 14.5834 42.0001C13.2685 42.0001 12.6595 42.4235 11.8884 42.959C11.0087 43.5716 9.91436 44.3334 7.87502 44.3334C5.83102 44.3334 4.72852 43.5704 3.84302 42.9556C3.66569 42.8331 3.48836 42.7094 3.30169 42.5927C2.99952 42.4037 2.80002 42.0887 2.76036 41.7352C2.71952 41.3817 2.84319 41.0294 3.09519 40.7774L21.1447 22.7267L10.598 11.291C10.1745 10.8302 10.1885 10.1174 10.6319 9.67521L19.9652 0.341881C20.4214 -0.114286 21.1587 -0.114286 21.6149 0.341881L26.2815 5.00855C26.7377 5.46471 26.7377 6.20205 26.2815 6.65821L23.6087 9.33105L54.488 40.0062C54.5907 40.1077 54.6735 40.2267 54.7319 40.3586C54.8765 40.6841 54.8882 41.1099 54.7249 41.4249C54.5604 41.7411 54.285 42.0164 53.935 42.084C53.1965 42.2276 52.731 42.5495 52.1407 42.959C51.2587 43.5716 50.1597 44.3334 48.1134 44.3334ZM44.338 40.3551C44.7545 40.5744 45.1127 40.8217 45.4324 41.0446C46.2047 41.5789 46.8125 42.0001 48.1134 42.0001C49.4294 42.0001 50.0395 41.5766 50.8119 41.0411C51.0755 40.8591 51.3509 40.6666 51.6624 40.4857L21.1342 10.1605C20.9137 9.94121 20.79 9.64488 20.79 9.33455C20.79 9.02421 20.9125 8.72672 21.1319 8.50855L23.807 5.83338L20.79 2.81638L13.0737 10.5327L23.6192 21.9707C24.0427 22.4315 24.0287 23.1432 23.5865 23.5865L5.75052 41.4226C6.30702 41.7644 6.89619 42.0001 7.87502 42.0001C9.18169 42.0001 9.78836 41.5777 10.556 41.0434C11.438 40.4297 12.5359 39.6667 14.5834 39.6667C16.6239 39.6667 17.7194 40.4297 18.599 41.0434C19.3667 41.5777 19.9722 42.0001 21.28 42.0001C22.5937 42.0001 23.2027 41.5777 23.9727 41.0422C24.7404 40.5079 25.6784 39.8557 27.2662 39.7076L34.6535 32.3202C35.1097 31.864 35.847 31.864 36.3032 32.3202L44.338 40.3551Z" fill="#FEA116"/>
</g>
<defs>
<clipPath id="clip0_49_160">
<rect width="56" height="56" fill="white"/>
</clipPath>
</defs>
</svg>
