<svg width="35" height="35" viewBox="0 0 35 35" fill="none" xmlns="http://www.w3.org/2000/svg">
<g clip-path="url(#clip0_124_214)">
<path fill-rule="evenodd" clip-rule="evenodd" d="M28.6831 19.7367H25.0702C24.5537 19.7367 24.2099 19.3923 24.2099 18.8764C24.2099 18.3604 24.5542 18.016 25.0702 18.016H28.6831C29.5429 18.016 30.4032 17.8444 31.2635 17.6717C31.7795 17.5001 32.1238 17.3279 32.4676 17.1557C32.812 16.9841 32.9841 16.4676 32.9841 16.1238C32.9841 15.7794 32.812 15.4351 32.6398 15.0913C31.7795 14.0593 30.231 13.3712 28.1666 12.6831C27.9944 12.6831 27.9944 12.5109 27.8222 12.5109C27.3062 12.1665 26.9624 11.6506 26.7903 11.1346C26.7903 10.4459 27.1346 9.92991 27.6506 9.58612C28.8547 7.86548 29.5429 6.31757 29.3712 4.94072C29.1991 4.08096 28.8547 3.39281 28.1666 2.87628C26.9624 2.01596 25.2424 2.01596 24.2093 2.87628C23.5217 3.39281 23.1774 4.08096 23.0052 4.94072C22.8336 6.31701 23.5217 7.86548 24.7258 9.58612C25.0702 9.93048 24.898 10.4464 24.5537 10.7902C24.2093 11.1346 23.6933 10.9624 23.3495 10.6186C21.6289 8.55362 20.9408 6.48918 21.2851 4.59693C21.4573 3.39281 22.1454 2.18814 23.1774 1.49999C24.898 0.123701 27.479 0.123701 29.1991 1.49999C30.231 2.36031 30.9191 3.39281 31.0913 4.59693C31.2635 6.48918 30.5754 8.55418 29.0269 10.6186C28.8547 10.7902 28.8547 10.9624 28.6825 10.9624C28.6825 10.9624 28.8547 10.9624 28.8547 11.1346C31.0913 11.8227 32.812 12.8547 33.8439 14.0588C34.3604 14.5753 34.7042 15.4356 34.7042 16.296C34.7042 16.7633 34.5954 17.2242 34.3864 17.6422C34.1775 18.0602 33.874 18.4238 33.5001 18.7042C32.9841 19.0485 32.4676 19.3929 31.7795 19.5645C30.7475 19.5645 29.715 19.7367 28.6831 19.7367Z" fill="#FEA116"/>
<path fill-rule="evenodd" clip-rule="evenodd" d="M9.92981 19.7367H6.31691C5.11279 19.7367 4.08086 19.5645 3.22053 19.2207C2.53182 19.0485 2.01586 18.7042 1.49989 18.3604C0.811744 17.8444 0.295776 16.8119 0.295776 15.9516C0.295776 15.0913 0.640131 14.4031 1.1561 13.715C2.36021 12.5109 4.08029 11.6505 6.31691 10.9624C6.31691 10.9624 6.48908 10.9624 6.48908 10.7902C6.48908 10.7902 6.31691 10.6186 6.31691 10.4459C4.59682 8.38255 3.73707 6.14594 4.08142 4.4253C4.25303 3.22118 4.94118 2.01651 5.97368 1.32836C7.69432 -0.04793 10.2747 -0.04793 11.9954 1.32836C13.0273 2.18868 13.7155 3.22118 13.8876 4.4253C14.0598 6.31755 13.3717 8.38255 11.8232 10.447C11.4788 10.7913 10.9629 10.7913 10.6191 10.6192C10.2747 10.2748 10.1026 9.75884 10.4469 9.41449C11.8232 7.69441 12.3392 5.97376 12.167 4.76965C12.167 3.90933 11.651 3.22118 10.9629 2.70465C9.75876 1.84489 8.21029 1.84489 7.00561 2.70465C6.31747 3.22118 5.8015 3.90933 5.8015 4.59747C5.62932 5.97376 6.31747 7.52167 7.52215 9.24231C7.8665 9.75884 8.38247 10.2748 8.21029 10.7908C8.21029 11.4795 7.69432 11.8233 7.17779 12.1671C7.17779 12.1671 7.00618 12.3392 6.83344 12.3392C4.94118 13.1996 3.56489 13.8877 2.53295 14.9202C2.36078 15.2646 2.1886 15.6084 2.1886 15.9522C2.1886 16.4681 2.36078 16.8125 2.70457 16.9846C3.04892 17.1563 3.39328 17.329 3.90924 17.5006C4.59739 17.845 5.45771 18.0166 6.31747 18.0166H9.93037C10.4469 18.0166 10.7907 18.3609 10.7907 18.8769C10.7907 19.3929 10.4463 19.7372 9.93037 19.7372L9.92981 19.7367Z" fill="#FEA116"/>
<path fill-rule="evenodd" clip-rule="evenodd" d="M21.1129 34.7042H14.0592C12.5108 34.7042 11.1345 34.532 9.9298 34.0161C9.07004 33.6717 8.38189 33.3279 7.86536 32.812C6.83343 32.296 6.31689 31.0913 6.31689 29.8872C6.31689 28.8547 6.66125 27.9944 7.34939 27.1346C8.72569 25.5862 10.9623 24.3815 14.0592 23.3495L14.5752 22.8336L14.0592 22.317C11.8226 19.3929 10.7907 16.8119 11.1345 14.4031C11.4788 12.8546 12.1664 11.4789 13.5427 10.4458C15.7793 8.89794 19.2206 8.89794 21.285 10.4458C22.6613 11.4789 23.5217 12.8546 23.6933 14.4031C24.0376 16.8119 23.0051 19.5645 20.9407 22.3176C20.4247 22.8336 20.4247 23.0052 20.4247 23.0052C20.4247 23.0052 20.7691 23.1774 20.9407 23.3495C24.0376 24.3815 26.2742 25.5862 27.6505 27.1346C28.3387 27.8228 28.683 28.8547 28.683 29.8872C28.683 31.0913 28.1665 32.296 27.3062 32.9841C26.7902 33.5001 26.1021 33.8439 25.2417 34.1883C23.8654 34.5326 22.4892 34.7042 21.1129 34.7042ZM17.5 10.7902C16.4675 10.7902 15.4355 11.1345 14.5752 11.6505C13.5427 12.3392 13.0267 13.3712 12.8546 14.5753C12.6829 16.4675 13.5433 18.7041 15.2633 21.1129C15.7793 21.6289 16.2958 22.1454 16.1237 23.0052C16.1237 23.6939 15.435 24.2099 14.9196 24.7258C14.9196 24.7258 14.7474 24.898 14.5752 24.898C11.651 25.7583 9.75818 26.9625 8.38189 28.3387C8.20972 28.6831 8.03754 29.3712 8.03754 29.8872C8.03754 30.5754 8.38189 31.2635 8.89786 31.6073C9.24222 31.9516 9.9298 32.296 10.6185 32.4676C11.6504 32.812 12.8546 32.9841 14.0592 32.9841H21.1129C22.317 32.9841 23.5217 32.812 24.5536 32.4676C25.2423 32.296 25.7583 31.9516 26.2742 31.6073C26.7902 31.2635 27.1346 30.5754 27.1346 29.8872C27.1346 29.3712 26.9624 28.6831 26.4458 28.3387C25.2417 26.9625 23.1773 25.93 20.2531 24.898C20.0804 24.898 20.0804 24.7258 19.9087 24.7258C19.3922 24.2099 18.7041 23.6933 18.7041 23.0052C18.7041 22.317 19.2206 21.6289 19.7366 21.1129C21.4572 18.8763 22.317 16.4675 22.1454 14.5753C21.9732 13.3712 21.4567 12.5108 20.4247 11.6511C19.5644 11.1345 18.5325 10.7902 17.5 10.7902Z" fill="#FEA116"/>
</g>
<defs>
<clipPath id="clip0_124_214">
<rect width="35" height="35" fill="white"/>
</clipPath>
</defs>
</svg>
