<svg width="21" height="18" viewBox="0 0 21 18" fill="none" xmlns="http://www.w3.org/2000/svg">
<g clip-path="url(#clip0_158_343)">
<path d="M14.6601 17.0999V15.2999C14.6601 14.3452 14.3089 13.4295 13.6838 12.7544C13.0587 12.0792 12.2108 11.7 11.3268 11.7H4.66012C3.77606 11.7 2.92821 12.0792 2.30309 12.7544C1.67797 13.4295 1.32678 14.3452 1.32678 15.2999L1.32678 17.0999" stroke="#FEA116" stroke-width="2" stroke-linecap="round" stroke-linejoin="round"/>
<path d="M7.99349 8.0999C9.83444 8.0999 11.3268 6.48813 11.3268 4.4999C11.3268 2.51168 9.83444 0.899902 7.99349 0.899902C6.15254 0.899902 4.66016 2.51168 4.66016 4.4999C4.66016 6.48813 6.15254 8.0999 7.99349 8.0999Z" stroke="#FEA116" stroke-width="2" stroke-linecap="round" stroke-linejoin="round"/>
<path d="M19.6601 17.0998V15.2998C19.6596 14.5022 19.4137 13.7273 18.9613 13.0969C18.5088 12.4665 17.8752 12.0163 17.1601 11.8168M13.8268 1.01685C14.5438 1.21512 15.1793 1.66548 15.6331 2.29693C16.087 2.92837 16.3333 3.70499 16.3333 4.50435C16.3333 5.3037 16.087 6.08032 15.6331 6.71177C15.1793 7.34322 14.5438 7.79358 13.8268 7.99185" stroke="#FEA116" stroke-width="2" stroke-linecap="round" stroke-linejoin="round"/>
</g>
<defs>
<clipPath id="clip0_158_343">
<rect width="20" height="18" fill="white" transform="translate(0.493408)"/>
</clipPath>
</defs>
</svg>
