<svg width="56" height="56" viewBox="0 0 56 56" fill="none" xmlns="http://www.w3.org/2000/svg">
<path d="M28.0001 46.6667C29.2887 46.6667 30.3334 45.622 30.3334 44.3333C30.3334 43.0447 29.2887 42 28.0001 42C26.7114 42 25.6667 43.0447 25.6667 44.3333C25.6667 45.622 26.7114 46.6667 28.0001 46.6667Z" fill="#FEA116"/>
<path d="M28 32.6667C24.9801 32.6666 22.0777 33.8376 19.9034 35.9334C19.4578 36.3635 19.2013 36.9529 19.1904 37.5721C19.1795 38.1913 19.4149 38.7895 19.845 39.235C20.2751 39.6806 20.8646 39.9371 21.4838 39.948C22.103 39.9589 22.7011 39.7235 23.1467 39.2934C24.4718 38.08 26.2033 37.407 28 37.407C29.7967 37.407 31.5283 38.08 32.8534 39.2934C33.2989 39.7235 33.8971 39.9589 34.5163 39.948C35.1355 39.9371 35.7249 39.6806 36.155 39.235C36.5851 38.7895 36.8206 38.1913 36.8097 37.5721C36.7987 36.9529 36.5423 36.3635 36.0967 35.9334C33.9223 33.8376 31.02 32.6666 28 32.6667ZM28 21C25.1818 21.0019 22.3929 21.571 19.7993 22.6733C17.2056 23.7757 14.8604 25.3889 12.9034 27.4167C12.6904 27.6419 12.5239 27.9069 12.4133 28.1964C12.3028 28.486 12.2503 28.7945 12.259 29.1044C12.2676 29.4142 12.3373 29.7193 12.4638 30.0022C12.5904 30.2852 12.7715 30.5404 12.9967 30.7534C13.4515 31.1835 14.0586 31.4152 14.6844 31.3977C14.9942 31.3891 15.2993 31.3195 15.5822 31.1929C15.8652 31.0663 16.1204 30.8852 16.3334 30.66C17.857 29.0793 19.6837 27.8219 21.7043 26.9631C23.7249 26.1042 25.8978 25.6616 28.0934 25.6616C30.2889 25.6616 32.4619 26.1042 34.4824 26.9631C36.503 27.8219 38.3297 29.0793 39.8534 30.66C40.0695 30.8805 40.3272 31.0559 40.6115 31.1761C40.8959 31.2962 41.2013 31.3587 41.51 31.36C41.966 31.3583 42.4115 31.223 42.7914 30.9708C43.1713 30.7187 43.4691 30.3608 43.6478 29.9413C43.8265 29.5218 43.8784 29.0591 43.7971 28.6104C43.7157 28.1617 43.5047 27.7467 43.19 27.4167C41.2221 25.3776 38.8617 23.7578 36.2512 22.6551C33.6406 21.5523 30.8339 20.9893 28 21Z" fill="#FEA116"/>
<path d="M50.6801 18.5033C44.5911 12.6293 36.4606 9.34686 28.0001 9.34686C19.5396 9.34686 11.4091 12.6293 5.32008 18.5033C4.9263 18.9412 4.71264 19.5118 4.72197 20.1006C4.7313 20.6894 4.96292 21.2529 5.37037 21.6781C5.77783 22.1032 6.33097 22.3586 6.91885 22.393C7.50673 22.4273 8.08586 22.2381 8.54008 21.8633C13.7611 16.8166 20.7386 13.9956 28.0001 13.9956C35.2615 13.9956 42.239 16.8166 47.4601 21.8633C47.8926 22.2803 48.4693 22.5143 49.0701 22.5167C49.3844 22.5155 49.6952 22.4508 49.9839 22.3265C50.2726 22.2022 50.5332 22.0209 50.7501 21.7933C51.1755 21.347 51.4069 20.7504 51.3938 20.1339C51.3807 19.5174 51.1241 18.9312 50.6801 18.5033Z" fill="#FEA116"/>
</svg>
